<svg aria-hidden="true" style="position: absolute; width: 0; height: 0; overflow: hidden;" version="1.1" xmlns="http://www.w3.org/2000/svg" xmlns:xlink="http://www.w3.org/1999/xlink">
<defs>
<symbol id="icon-waves" viewBox="0 0 24 24">
<path d="M15 19c-1.342 0-2.685-0.511-3.707-1.532-1.266-1.265-3.323-1.264-4.586 0-0.391 0.391-1.023 0.391-1.414 0s-0.391-1.023 0-1.414c2.043-2.043 5.369-2.043 7.414 0 1.265 1.264 3.322 1.263 4.586 0 0.391-0.391 1.023-0.391 1.414 0s0.391 1.023 0 1.414c-1.021 1.021-2.364 1.532-3.707 1.532z"></path>
<path d="M15 15c-1.342 0-2.685-0.511-3.707-1.532-1.266-1.265-3.323-1.264-4.586 0-0.391 0.391-1.023 0.391-1.414 0s-0.391-1.023 0-1.414c2.043-2.043 5.369-2.043 7.414 0 1.265 1.264 3.322 1.263 4.586 0 0.391-0.391 1.023-0.391 1.414 0s0.391 1.023 0 1.414c-1.021 1.021-2.364 1.532-3.707 1.532z"></path>
<path d="M15 11c-1.342 0-2.685-0.511-3.707-1.532-1.266-1.265-3.323-1.264-4.586 0-0.391 0.391-1.023 0.391-1.414 0s-0.391-1.023 0-1.414c2.043-2.042 5.369-2.044 7.414 0 1.265 1.264 3.322 1.263 4.586 0 0.391-0.391 1.023-0.391 1.414 0s0.391 1.023 0 1.414c-1.021 1.021-2.364 1.532-3.707 1.532z"></path>
</symbol>
<symbol id="icon-close1" viewBox="0 0 24 24">
<path d="M18.984 6.422l-5.578 5.578 5.578 5.578-1.406 1.406-5.578-5.578-5.578 5.578-1.406-1.406 5.578-5.578-5.578-5.578 1.406-1.406 5.578 5.578 5.578-5.578z"></path>
</symbol>
<symbol id="icon-phone" viewBox="0 0 32 32">
<path d="M22 20c-2 2-2 4-4 4s-4-2-6-4-4-4-4-6 2-2 4-4-4-8-6-8-6 6-6 6c0 4 4.109 12.109 8 16s12 8 16 8c0 0 6-4 6-6s-6-8-8-6z"></path>
</symbol>
<symbol id="icon-location" viewBox="0 0 32 32">
<path d="M16 0c-5.523 0-10 4.477-10 10 0 10 10 22 10 22s10-12 10-22c0-5.523-4.477-10-10-10zM16 16c-3.314 0-6-2.686-6-6s2.686-6 6-6 6 2.686 6 6-2.686 6-6 6z"></path>
</symbol>
<symbol id="icon-instagram" viewBox="0 0 32 32">
<path d="M16 2.881c4.275 0 4.781 0.019 6.462 0.094 1.563 0.069 2.406 0.331 2.969 0.55 0.744 0.288 1.281 0.638 1.837 1.194 0.563 0.563 0.906 1.094 1.2 1.838 0.219 0.563 0.481 1.412 0.55 2.969 0.075 1.688 0.094 2.194 0.094 6.463s-0.019 4.781-0.094 6.463c-0.069 1.563-0.331 2.406-0.55 2.969-0.288 0.744-0.637 1.281-1.194 1.837-0.563 0.563-1.094 0.906-1.837 1.2-0.563 0.219-1.413 0.481-2.969 0.55-1.688 0.075-2.194 0.094-6.463 0.094s-4.781-0.019-6.463-0.094c-1.563-0.069-2.406-0.331-2.969-0.55-0.744-0.288-1.281-0.637-1.838-1.194-0.563-0.563-0.906-1.094-1.2-1.837-0.219-0.563-0.481-1.413-0.55-2.969-0.075-1.688-0.094-2.194-0.094-6.463s0.019-4.781 0.094-6.463c0.069-1.563 0.331-2.406 0.55-2.969 0.288-0.744 0.638-1.281 1.194-1.838 0.563-0.563 1.094-0.906 1.838-1.2 0.563-0.219 1.412-0.481 2.969-0.55 1.681-0.075 2.188-0.094 6.463-0.094zM16 0c-4.344 0-4.887 0.019-6.594 0.094-1.7 0.075-2.869 0.35-3.881 0.744-1.056 0.412-1.95 0.956-2.837 1.85-0.894 0.888-1.438 1.781-1.85 2.831-0.394 1.019-0.669 2.181-0.744 3.881-0.075 1.713-0.094 2.256-0.094 6.6s0.019 4.887 0.094 6.594c0.075 1.7 0.35 2.869 0.744 3.881 0.413 1.056 0.956 1.95 1.85 2.837 0.887 0.887 1.781 1.438 2.831 1.844 1.019 0.394 2.181 0.669 3.881 0.744 1.706 0.075 2.25 0.094 6.594 0.094s4.888-0.019 6.594-0.094c1.7-0.075 2.869-0.35 3.881-0.744 1.050-0.406 1.944-0.956 2.831-1.844s1.438-1.781 1.844-2.831c0.394-1.019 0.669-2.181 0.744-3.881 0.075-1.706 0.094-2.25 0.094-6.594s-0.019-4.887-0.094-6.594c-0.075-1.7-0.35-2.869-0.744-3.881-0.394-1.063-0.938-1.956-1.831-2.844-0.887-0.887-1.781-1.438-2.831-1.844-1.019-0.394-2.181-0.669-3.881-0.744-1.712-0.081-2.256-0.1-6.6-0.1v0z"></path>
<path d="M16 7.781c-4.537 0-8.219 3.681-8.219 8.219s3.681 8.219 8.219 8.219 8.219-3.681 8.219-8.219c0-4.537-3.681-8.219-8.219-8.219zM16 21.331c-2.944 0-5.331-2.387-5.331-5.331s2.387-5.331 5.331-5.331c2.944 0 5.331 2.387 5.331 5.331s-2.387 5.331-5.331 5.331z"></path>
<path d="M26.462 7.456c0 1.060-0.859 1.919-1.919 1.919s-1.919-0.859-1.919-1.919c0-1.060 0.859-1.919 1.919-1.919s1.919 0.859 1.919 1.919z"></path>
</symbol>
<symbol id="icon-aroma" viewBox="0 0 32 32">
<path d="M21.344 0.832c-0.128 0.128-0.224 2.592-0.224 5.472 0 5.024 0.032 5.216 0.64 5.216 0.64 0 0.64-0.16 0.576-5.344-0.096-4.992-0.288-6.048-0.992-5.344z"></path>
<path d="M17.6 1.888c0 0.256 1.44 7.52 1.76 8.896 0.096 0.48 0.416 0.736 0.832 0.736 0.48 0 0.608-0.16 0.48-0.576-0.096-0.288-0.544-2.528-1.024-4.96-0.736-3.744-0.96-4.384-1.44-4.384-0.352 0-0.608 0.128-0.608 0.288z"></path>
<path d="M23.872 5.984c-0.48 2.432-0.928 4.672-1.024 4.96-0.128 0.416 0 0.576 0.48 0.576 0.736 0 0.672 0.224 1.792-5.408 0.96-4.736 0.96-4.512 0.192-4.512-0.48 0-0.704 0.64-1.44 4.384z"></path>
<path d="M17.152 13.312c-0.64 0.64-0.64 2.176 0 2.816 0.288 0.32 1.056 0.512 1.888 0.512 1.056 0 1.44 0.128 1.536 0.544 0.512 1.824 0.544 2.592 0.224 4.128-0.352 1.632-0.416 1.728-1.312 1.728-0.864 0-0.928-0.064-0.736-0.896 0.128-0.48 0.224-0.928 0.192-1.024 0-1.312-0.224-1.824-1.152-2.752s-1.312-1.088-2.56-1.088c-1.344 0-1.472-0.064-1.472-0.768 0-1.728-2.304-3.328-4.256-2.944-1.248 0.224-2.656 1.568-2.944 2.816-0.192 0.768-0.384 0.896-1.344 0.896-3.008 0-4.864 2.976-3.392 5.44 0.288 0.512 0.864 1.088 1.28 1.312 0.64 0.352 0.736 0.576 0.512 1.248-0.512 1.76-0.256 3.168 0.736 4.192 1.408 1.408 3.104 1.568 4.736 0.448l1.248-0.832 0.704 0.672c1.536 1.44 4.256 1.024 5.472-0.8 0.512-0.8 0.512-2.88 0-4.096-0.224-0.48-0.064-0.544 1.664-0.544h1.952l-0.192 1.6c-0.16 1.344-0.096 1.6 0.352 1.6 0.288 0 0.512-0.16 0.512-0.352 0-0.256 0.16-0.256 0.48 0.032 0.384 0.32 0.576 0.32 0.96 0 0.32-0.288 0.48-0.288 0.48-0.032 0 0.192 0.224 0.352 0.512 0.352 0.448 0 0.512-0.256 0.352-1.6l-0.192-1.6h6.048v1.664c-0.032 3.104-0.768 3.456-6.944 3.456-4.576 0-5.536 0.192-5.536 1.024 0 0.128 2.432 0.256 5.408 0.256 5.056 0 5.44-0.032 6.464-0.736 1.6-1.088 1.888-1.888 1.888-5.664 0-2.048-0.16-3.68-0.416-4.16-0.576-1.12-2.368-2.24-3.616-2.24-1.28 0-1.472-0.832-0.448-1.76 0.768-0.704 0.832-2.144 0.128-2.848-0.736-0.736-8.48-0.736-9.216 0zM25.6 14.72c0 0.608-0.224 0.64-3.84 0.64s-3.84-0.032-3.84-0.64c0-0.608 0.224-0.64 3.84-0.64s3.84 0.032 3.84 0.64zM11.744 15.424c0.928 0.864 0.96 2.272 0.096 3.68-0.704 1.152-1.12 1.376-0.8 0.448 0.224-0.704-0.576-1.472-1.312-1.184-0.384 0.128-0.48 0.48-0.384 1.152 0.096 0.544 0.096 0.96 0.064 0.96-0.288 0-1.728-2.88-1.728-3.488 0-0.992 1.376-2.272 2.432-2.272 0.48 0 1.216 0.32 1.632 0.704zM24.32 17.536c0 1.184 0.544 1.664 1.824 1.664s2.816 0.736 3.104 1.44c0.096 0.288 0.192 0.96 0.192 1.472v0.928h-6.368l-0.352-1.728c-0.32-1.536-0.288-2.304 0.224-4.128 0.064-0.288 0.416-0.544 0.768-0.544 0.448 0 0.608 0.224 0.608 0.896zM7.2 19.84c1.216 1.248 1.28 1.568 0.192 0.992-0.288-0.16-0.736-0.192-0.96-0.064-0.64 0.416-0.256 1.44 0.608 1.632 1.024 0.256 0.48 0.576-1.376 0.832-1.28 0.192-1.568 0.096-2.272-0.608-0.992-0.992-1.056-2.080-0.16-3.232 1.024-1.312 2.4-1.152 3.968 0.448zM16.864 19.040c0.928 0.64 1.184 1.888 0.576 3.008-0.576 1.12-1.376 1.44-2.976 1.152-1.632-0.256-2.464-0.8-1.248-0.8 1.056 0 1.472-0.8 0.768-1.504-0.448-0.48-0.576-0.448-1.376 0.064l-0.864 0.576 0.704-1.024c1.376-1.92 3.008-2.464 4.416-1.472zM7.936 24.352c-0.736 0.416-0.736 1.536-0.032 1.792 0.32 0.128 0.736-0.064 1.152-0.576l0.64-0.768-0.224 1.568c-0.352 2.848-2.496 4-4.192 2.272-1.376-1.344-0.928-2.944 1.056-3.968 1.248-0.672 2.656-0.96 1.6-0.32zM13.536 24.448c1.536 0.608 2.144 1.376 2.144 2.592 0 1.952-2.304 3.072-3.84 1.824-0.544-0.448-0.768-0.992-0.832-2.336-0.096-1.344-0.064-1.568 0.192-1.024 0.352 0.832 1.536 0.992 1.824 0.256 0.096-0.288-0.096-0.8-0.384-1.12-0.672-0.768-0.512-0.8 0.896-0.192z"></path>
</symbol>
<symbol id="icon-legs" viewBox="0 0 32 32">
<path d="M19 1.5c-0.4 0.25-1.15 0.55-1.6 0.7s-1.2 0.85-1.7 1.55c-1.55 2.35 0.55 6.5 3.3 6.5 0.6 0 0.75 0.65 0.75 2.85 0 2.55-0.1 2.9-1.15 3.15-0.6 0.15-1.55 0.050-2.1-0.25-1.75-0.95-2.9-0.5-4.9 1.75-1.1 1.25-2.050 2.25-2.2 2.25-0.1 0-0.1-0.75 0-1.7 0.15-1.3 0.45-1.8 1.3-1.9 0.65-0.1 1.050-0.5 1.050-1.15 0-0.85-0.4-1-2.95-1.15-1.7-0.1-3.25-0.45-3.65-0.9-1-1-2.35-0.9-3.35 0.25-0.8 0.9-0.85 1.35-0.25 4.85 0.45 2.95 0.5 3.95 0.050 4.1-0.75 0.25-0.8 3.1-0.1 3.1 0.3 0 0.5 1.25 0.5 2.75 0 2.7 0 2.75 1.5 2.75 1 0 1.5-0.25 1.5-0.75 0-0.65 1.55-0.75 11-0.75s11 0.1 11 0.75c0 0.5 0.5 0.75 1.5 0.75 1.5 0 1.5-0.050 1.5-2.75 0-1.5 0.25-2.75 0.5-2.75 0.3 0 0.5-0.7 0.5-1.5 0-1.4-0.1-1.5-2.050-1.5s-2 0-1.25-1.1c1.1-1.55 1-2.75-0.5-7-1.2-3.5-3-5.9-4.4-5.9-1.050 0-1.25-1.1-0.7-3.7 0.7-3.25-0.7-4.7-3.1-3.3zM21.25 2.55c0.55 0.85-0.050 1.050-0.75 0.2-0.4-0.45-0.4-0.75-0.1-0.75s0.7 0.25 0.85 0.55zM20.1 3.85c1.5 1.35 1.050 1.9-1.6 2.050-2.7 0.15-3.3-0.55-1.7-2.1 1-1.050 2.15-1 3.3 0.050zM20.65 8.050c0.4 0.55 1.5 1.4 2.4 1.85 0.95 0.45 1.8 1.3 1.9 1.85 0.15 0.9 0.050 0.85-0.8-0.2-1.2-1.5-2.65-1.1-2.65 0.7 0 0.7-0.2 1.25-0.4 1.25-0.25 0-0.35-0.7-0.2-1.5 0.25-1.85-0.45-2.8-2.35-3.15-0.8-0.15-1.55-0.65-1.7-1.050-0.5-1.3 2.9-1.050 3.8 0.25zM23.25 14.35c-0.2 1.6-0.4 2.95-0.5 3.050-0.050 0.050-1.35 0.35-2.8 0.55-1.5 0.25-3.35 0.6-4.2 0.8-3.050 0.75-0.45-0.6 2.8-1.45l3.35-0.9 0.3-2.45c0.2-1.35 0.6-2.45 0.85-2.45 0.4 0 0.45 0.95 0.2 2.85zM4.9 14.6c0.15 0.7-0.15 0.9-1.35 0.9-1.45 0-2.050-0.85-1.2-1.7 0.65-0.65 2.4-0.050 2.55 0.8zM26.7 15.85c1.1 3.15 1 4-0.45 5.4-1 1.050-1.7 1.25-4 1.25-2.85 0-3.050-0.15-2.45-2.4 0.4-1.35 1.7-1.45 1.7-0.1 0 0.55 0.25 1 0.5 1 0.3 0 0.5-0.6 0.5-1.3 0-1.3 0-1.3 1.3-0.45 1.55 1 2.4 0.5 0.95-0.55-0.95-0.7-0.95-0.8-0.1-1.4 1.050-0.8 1.1-1.3 0.1-1.3-0.8 0-0.95-0.45-0.45-1.7 0.55-1.5 1.6-0.8 2.4 1.55zM9.9 15.35c-0.8 0.1-2 0.1-2.75 0-0.8-0.1-0.15-0.2 1.35-0.2s2.15 0.1 1.4 0.2zM3.5 17c0 0.25-0.2 0.5-0.5 0.5-0.25 0-0.5-0.25-0.5-0.5 0-0.3 0.25-0.5 0.5-0.5 0.3 0 0.5 0.2 0.5 0.5zM6.5 17c0 0.25-0.45 0.5-1 0.5s-1-0.25-1-0.5c0-0.3 0.45-0.5 1-0.5s1 0.2 1 0.5zM8.5 17c0 0.25-0.2 0.5-0.5 0.5-0.25 0-0.5-0.25-0.5-0.5 0-0.3 0.25-0.5 0.5-0.5 0.3 0 0.5 0.2 0.5 0.5zM15.2 16.85c-0.6 0.1-1.35 0.95-1.85 2.1-1.15 2.6-2.45 3.65-4.2 3.45l-1.4-0.2 1.4-0.6c0.75-0.3 1.35-0.75 1.35-0.95 0-1.050 3.55-4.15 4.6-4.1 1.050 0.1 1.050 0.1 0.1 0.3zM3.5 19c0 0.25-0.2 0.5-0.5 0.5-0.25 0-0.5-0.25-0.5-0.5 0-0.3 0.25-0.5 0.5-0.5 0.3 0 0.5 0.2 0.5 0.5zM6.5 19c0 0.25-0.45 0.5-1 0.5s-1-0.25-1-0.5c0-0.3 0.45-0.5 1-0.5s1 0.2 1 0.5zM8.5 19c0 0.25-0.2 0.5-0.5 0.5-0.25 0-0.5-0.25-0.5-0.5 0-0.3 0.25-0.5 0.5-0.5 0.3 0 0.5 0.2 0.5 0.5zM19 19.95c0 0.75-0.8 1.1-1.7 0.75-1.25-0.45-0.95-1.2 0.45-1.2 0.7 0 1.25 0.2 1.25 0.45zM4 21.5c0 0.55-0.2 1-0.5 1-0.25 0-0.5-0.45-0.5-1s0.25-1 0.5-1c0.3 0 0.5 0.45 0.5 1zM6 21.5c0 0.55-0.2 1-0.5 1-0.25 0-0.5-0.45-0.5-1s0.25-1 0.5-1c0.3 0 0.5 0.45 0.5 1zM8 20.7c0 0.15-0.2 0.4-0.5 0.55-0.25 0.15-0.5 0.050-0.5-0.2 0-0.3 0.25-0.55 0.5-0.55 0.3 0 0.5 0.1 0.5 0.2zM16.8 22.4c-2.15 0.2-2.55-0.050-2.15-1.15 0.3-0.65 0.5-0.65 2.15 0.15l1.85 0.85-1.85 0.15zM13.5 21.75c0 0.4-0.2 0.75-0.5 0.75-0.25 0-0.35-0.35-0.2-0.75 0.2-0.4 0.4-0.75 0.5-0.75s0.2 0.35 0.2 0.75zM30 24c0 0.3-5 0.5-14 0.5s-14-0.2-14-0.5c0-0.3 5-0.5 14-0.5s14 0.2 14 0.5zM4 27.75c0 1.25-0.2 2.25-0.5 2.25-0.25 0-0.5-1-0.5-2.25s0.25-2.25 0.5-2.25c0.3 0 0.5 1 0.5 2.25zM27 26c0 0.3-4 0.5-11 0.5s-11-0.2-11-0.5c0-0.3 4-0.5 11-0.5s11 0.2 11 0.5zM29 27.75c0 1.25-0.2 2.25-0.5 2.25-0.25 0-0.5-1-0.5-2.25s0.25-2.25 0.5-2.25c0.3 0 0.5 1 0.5 2.25zM27 28c0 0.3-4 0.5-11 0.5s-11-0.2-11-0.5c0-0.3 4-0.5 11-0.5s11 0.2 11 0.5z"></path>
<path d="M6.7 8.7c-0.3 1.25 0.050 2.3 0.75 2.3 0.2 0 0.35-0.8 0.4-1.75 0.050-2-0.7-2.35-1.15-0.55z"></path>
<path d="M9.4 7.8c-0.25 0.2-0.4 1.5-0.4 2.9 0 1.75 0.15 2.35 0.55 1.95 0.25-0.25 0.45-1.6 0.35-2.9s-0.3-2.15-0.5-1.95z"></path>
<path d="M11.5 8.25c0 0.4 0.25 0.75 0.5 0.75 0.3 0 0.5-0.35 0.5-0.75s-0.2-0.75-0.5-0.75c-0.25 0-0.5 0.35-0.5 0.75z"></path>
<path d="M11.15 11.25c-0.050 0.95 0.15 1.75 0.4 1.75 0.55 0 1.15-2.3 0.7-2.95-0.6-1.050-1.050-0.55-1.1 1.2z"></path>
<path d="M6.5 12.25c0 0.4 0.25 0.75 0.5 0.75 0.3 0 0.5-0.35 0.5-0.75s-0.2-0.75-0.5-0.75c-0.25 0-0.5 0.35-0.5 0.75z"></path>
</symbol>
<symbol id="icon-bath" viewBox="0 0 32 32">
<path d="M10 3.5c0 0.25 0.25 0.5 0.5 0.5 0.3 0 0.5-0.25 0.5-0.5 0-0.3-0.2-0.5-0.5-0.5-0.25 0-0.5 0.2-0.5 0.5z"></path>
<path d="M26.75 4.5c-0.55 0.85 0.25 1.6 1.050 0.95 0.35-0.3 0.55-0.75 0.4-1-0.35-0.6-1.050-0.55-1.45 0.050z"></path>
<path d="M15.3 7.3c-0.15 0.45-0.3 1.2-0.3 1.7 0 0.45-0.3 1.1-0.65 1.4-1.15 0.95-0.35 4.6 1 4.6 0.4 0 1.050-0.35 1.5-0.75 0.4-0.4 0.95-0.65 1.2-0.5 0.25 0.2 0.45-0.050 0.45-0.45s-0.25-0.9-0.5-1.050c-0.3-0.2-0.2-0.6 0.25-1.050 0.85-0.85 0.6-1.7-0.55-1.7-0.45 0-0.7-0.55-0.7-1.5 0-1.6-1.15-2.1-1.7-0.7z"></path>
<path d="M4.5 9.5c0 0.25 0.25 0.5 0.5 0.5 0.3 0 0.5-0.25 0.5-0.5 0-0.3-0.2-0.5-0.5-0.5-0.25 0-0.5 0.2-0.5 0.5z"></path>
<path d="M9.2 10.7c0.3 1.45 0.15 1.7-0.8 2l-1.15 0.3 1.2 1c1.25 1.050 5.55 1.45 5.55 0.5 0-0.3-0.35-0.5-0.75-0.5-0.6 0-0.65-0.2-0.3-0.9 0.55-1.1-0.2-2.15-1.2-1.8-0.35 0.15-0.75-0.3-0.95-1-0.15-0.7-0.7-1.3-1.1-1.3-0.65 0-0.75 0.35-0.5 1.7z"></path>
<path d="M26 10.5c0 0.25 0.25 0.5 0.5 0.5 0.3 0 0.5-0.25 0.5-0.5 0-0.3-0.2-0.5-0.5-0.5-0.25 0-0.5 0.2-0.5 0.5z"></path>
<path d="M19.35 12.85c-0.2 0.15-0.35 0.75-0.35 1.25 0 0.75 0.4 0.9 2.5 0.9 1.75 0 2.6-0.2 2.8-0.75 0.55-1.35-0.3-1.85-1.65-0.95-1.2 0.75-1.35 0.75-1.75 0-0.5-0.85-1-1-1.55-0.45z"></path>
<path d="M17.4 14.85c0.35 0.15 0.8 0.1 0.95-0.050 0.2-0.15-0.1-0.3-0.65-0.25-0.55 0-0.7 0.15-0.3 0.3z"></path>
<path d="M5 15.8c0 0.15 0.25 1.25 0.55 2.5 0.55 2.050 0.7 2.2 2.2 2.2s1.6-0.1 1.4-1.4c-0.55-3.55-0.6-3.6-2.4-3.6-0.95 0-1.75 0.15-1.75 0.3z"></path>
<path d="M9.5 16.85c0 2.75 0.5 3.65 2.050 3.65 1.4 0 1.45-0.1 1.45-2.5v-2.5h-1.75c-1.6 0-1.75 0.15-1.75 1.35z"></path>
<path d="M13.5 16.85c0 3.15 0.4 3.65 3.050 3.65h2.45v-5h-2.75c-2.65 0-2.75 0.050-2.75 1.35z"></path>
<path d="M19.85 15.8c-0.2 0.2-0.35 1.35-0.35 2.55 0 2.050 0.050 2.15 1.45 2.15 1.75 0 1.9-0.15 2.15-2.75 0.15-1.9 0.1-2-1.35-2.15-0.85-0.1-1.7 0-1.9 0.2z"></path>
<path d="M23.8 16.6c-0.15 0.65-0.3 1.75-0.3 2.5 0 1.2 0.2 1.4 1.5 1.4 1.25 0 1.5-0.25 1.95-1.9 0.8-2.85 0.7-3.1-1.15-3.1-1.3 0-1.75 0.25-2 1.1z"></path>
<path d="M5 21.6c0 0.35 0.15 1.15 0.3 1.75 0.3 1.15 0.35 1.15 10.95 1.15 11.4 0 11.25 0.050 11.25-2.55 0-0.9-0.5-0.95-11.25-0.95-8.65 0-11.25 0.15-11.25 0.6zM8.1 22.75c0 0.25-0.25 0.55-0.55 0.65s-0.55-0.2-0.55-0.65c0-0.45 0.25-0.75 0.55-0.65s0.55 0.4 0.55 0.65zM10.6 22.75c0 0.25-0.25 0.55-0.55 0.65s-0.55-0.2-0.55-0.65c0-0.45 0.25-0.75 0.55-0.65s0.55 0.4 0.55 0.65zM13 22.75c0 0.4-0.2 0.75-0.5 0.75-0.25 0-0.5-0.35-0.5-0.75s0.25-0.75 0.5-0.75c0.3 0 0.5 0.35 0.5 0.75zM20.5 22.75c0 0.4-0.2 0.75-0.5 0.75-0.25 0-0.5-0.35-0.5-0.75s0.25-0.75 0.5-0.75c0.3 0 0.5 0.35 0.5 0.75zM23 22.75c0 0.4-0.2 0.75-0.5 0.75-0.25 0-0.5-0.35-0.5-0.75s0.25-0.75 0.5-0.75c0.3 0 0.5 0.35 0.5 0.75zM25.5 22.75c0 0.4-0.2 0.75-0.5 0.75-0.25 0-0.5-0.35-0.5-0.75s0.25-0.75 0.5-0.75c0.3 0 0.5 0.35 0.5 0.75z"></path>
<path d="M7 25.6c0 0.35 0.25 1.5 0.55 2.5 0.4 1.55 0.7 1.9 1.8 1.9 1.15 0 1.25-0.15 0.95-1.55-0.15-0.85-0.3-2-0.3-2.5 0-0.7-0.35-0.95-1.5-0.95-0.85 0-1.5 0.25-1.5 0.6z"></path>
<path d="M10.7 26.55c0.15 0.85 0.3 2 0.3 2.5 0 0.7 0.35 0.95 1.25 0.95 1.15 0 1.25-0.15 1.25-2.5 0-2.45 0-2.5-1.55-2.5-1.5 0-1.55 0.1-1.25 1.55z"></path>
<path d="M14 26.35c0 3.050 0.5 3.7 2.45 3.55 1.75-0.15 1.8-0.2 1.95-2.55l0.15-2.35h-2.25c-2.2 0-2.3 0.1-2.3 1.35z"></path>
<path d="M19 27.5v2.5h2.7c1.5 0 2.85-0.2 3-0.4 0.15-0.25 0.4-1.4 0.6-2.55 0.35-2.1 0.35-2.15-1.1-1.95-1 0.1-1.5 0.5-1.75 1.4l-0.35 1.25-0.050-1.4c-0.050-1.15-0.25-1.35-1.55-1.35-1.45 0-1.5 0.050-1.5 2.5z"></path>
</symbol>
<symbol id="icon-snow" viewBox="0 0 26 28">
<path d="M24.469 17.453l-2.609 0.516 2.906 1.672c0.469 0.266 0.641 0.891 0.359 1.359s-0.891 0.641-1.359 0.359l-2.906-1.656 0.859 2.5c0.438 1.25-1.469 1.891-1.891 0.656l-1.594-4.688-4.234-2.438v4.891l3.25 3.719c0.875 0.984-0.641 2.312-1.5 1.313l-1.75-2v3.344c0 0.547-0.453 1-1 1s-1-0.453-1-1v-3.344l-1.75 2c-0.859 1-2.375-0.328-1.5-1.313l3.25-3.719v-4.891l-4.234 2.438-1.594 4.688c-0.422 1.234-2.328 0.594-1.891-0.656l0.859-2.5-2.906 1.656c-0.469 0.281-1.078 0.109-1.359-0.359s-0.109-1.094 0.359-1.359l2.906-1.672-2.609-0.516c-1.297-0.266-0.906-2.219 0.391-1.969l4.844 0.969 4.234-2.453-4.234-2.453-4.844 0.969c-0.063 0.016-0.141 0.016-0.203 0.016-1.188 0-1.359-1.75-0.187-1.984l2.609-0.516-2.906-1.672c-0.469-0.266-0.641-0.891-0.359-1.359 0.281-0.484 0.891-0.641 1.359-0.359l2.906 1.656-0.859-2.5c-0.438-1.25 1.469-1.891 1.891-0.656l1.594 4.688 4.234 2.438v-4.891l-3.25-3.719c-0.875-0.984 0.641-2.312 1.5-1.313l1.75 2v-3.344c0-0.547 0.453-1 1-1s1 0.453 1 1v3.344l1.75-2c0.859-1 2.375 0.328 1.5 1.313l-3.25 3.719v4.891l4.234-2.438 1.594-4.688c0.422-1.234 2.328-0.594 1.891 0.656l-0.859 2.5 2.906-1.656c0.469-0.281 1.078-0.109 1.359 0.359s0.109 1.094-0.359 1.359l-2.906 1.672 2.609 0.516c1.172 0.234 1 1.984-0.187 1.984-0.063 0-0.141 0-0.203-0.016l-4.844-0.969-4.234 2.453 4.234 2.453 4.844-0.969c1.297-0.25 1.687 1.703 0.391 1.969z"></path>
</symbol>
<symbol id="icon-mass" viewBox="0 0 32 32">
<path  opacity="0.778" d="M17.44-0.16c-0.845 0.579-1.538 1.326-2.080 2.24-0.548 1.982-0.068 3.635 1.44 4.96 2.511 1.083 4.484 0.496 5.92-1.76 0.708-2.395 0.015-4.209-2.080-5.44-1.067 0-2.133 0-3.2 0zM18.080 1.44c2.992-0.043 3.845 1.29 2.56 4-2.734 1.063-3.961 0.157-3.68-2.72 0.221-0.592 0.594-1.019 1.12-1.28z"></path>
<path  opacity="0.875" d="M31.84 18.080c-1.639-3.277-3.292-6.584-4.96-9.92-0.809-0.911-1.823-1.445-3.040-1.6-1.75 0.528-3.403 1.275-4.96 2.24-2.027 3.413-4.053 6.827-6.080 10.24-1.873 1.572-2.62 3.598-2.24 6.080-0.693 0.693-1.387 1.387-2.080 2.080-2.56 0.107-5.12 0.213-7.68 0.32-0.28 0.334-0.6 0.601-0.96 0.8 0 0.853 0 1.707 0 2.56 0.427 0.213 0.747 0.533 0.96 0.96 3.52 0 7.040 0 10.56 0 1.322-1.482 2.708-2.922 4.16-4.32 2.878-0.16 5.758-0.213 8.64-0.16 0 1.493 0 2.987 0 4.48 2.56 0 5.12 0 7.68 0 0-0.427 0-0.853 0-1.28-2.133 0-4.267 0-6.4 0 0-3.413 0-6.827 0-10.24 2.133 0 4.267 0 6.4 0 0-0.747 0-1.493 0-2.24zM23.84 8.16c0.489 0.181 0.969 0.395 1.44 0.64 1.699 3.345 3.353 6.705 4.96 10.080-2.46 0.266-4.914 0.213-7.36-0.16-0.831-1.693-1.631-3.4-2.4-5.12-1.24 1.679-2.36 3.439-3.36 5.28-0.769 0.261-1.515 0.207-2.24-0.16 1.734-2.72 3.387-5.494 4.96-8.32 1.276-0.877 2.609-1.624 4-2.24zM20 17.12c1.593 1.557 1.273 2.143-0.96 1.76 0.402-0.557 0.722-1.144 0.96-1.76zM14.56 20.32c3.2 0 6.4 0 9.6 0 0 1.92 0 3.84 0 5.76-3.202-0.053-6.402 0-9.6 0.16-1.397 1.504-2.89 2.891-4.48 4.16-2.789 0.257-5.562 0.204-8.32-0.16-0.426-0.591-0.319-1.071 0.32-1.44 2.453-0.107 4.907-0.213 7.36-0.32 0.8-0.8 1.6-1.6 2.4-2.4 0.087-1.513 0.301-3.007 0.64-4.48 0.573-0.681 1.267-1.108 2.080-1.28z"></path>
<path  opacity="0.778" d="M4.64 19.040c-0.845 0.579-1.538 1.326-2.080 2.24-0.716 2.35-0.022 4.11 2.080 5.28 2.35 0.716 4.11 0.022 5.28-2.080 0.582-4.058-1.178-5.871-5.28-5.44zM5.28 20.64c2.992-0.043 3.845 1.29 2.56 4-2.734 1.063-3.961 0.157-3.68-2.72 0.221-0.592 0.594-1.019 1.12-1.28z"></path>
</symbol>
<symbol id="icon-steam" viewBox="0 0 32 32">
<path d="M15.52 2.080c4.053-0.054 6.399 1.919 7.040 5.92 5.121-0.316 7.201 2.084 6.24 7.2-1.551 3.524-4.271 5.017-8.16 4.48-0.108-1.168 0.425-1.702 1.6-1.6 0.212-1.636 0.585-1.636 1.12 0 0.645-0.466 0.912-1.106 0.8-1.92 0.32 0 0.64 0 0.96 0-0.073 0.593 0.14 0.86 0.64 0.8 2.116-2.369 2.116-4.716 0-7.040-0.524-0.192-1.057-0.352-1.6-0.48-0.954 0.32-1.914 0.48-2.88 0.48-0.186-2.144-1.040-3.957-2.56-5.44-3.763-1.264-6.109 0.070-7.040 4-0.832 0.17-1.685 0.223-2.56 0.16-1.044 1.054-1.471 2.28-1.28 3.68-1.13 0.325-2.143 0.858-3.040 1.6-0.867 2.863-0.28 3.237 1.76 1.12 0.363-0.24 0.683-0.186 0.96 0.16-0.508 1.162-1.361 1.962-2.56 2.4 1.37 1.033 2.437 0.713 3.2-0.96 0.303-0.154 0.623-0.208 0.96-0.16-0.078 0.884-0.505 1.577-1.28 2.080 0.621 0.238 1.208 0.184 1.76-0.16 0.522 0.489 0.576 1.022 0.16 1.6-4.939 0.981-7.232-1.045-6.88-6.080 0.793-1.434 1.966-2.394 3.52-2.88-0.105-2.775 1.228-4.215 4-4.32 0.973-2.416 2.68-3.963 5.12-4.64z"></path>
<path d="M17.12 4.64c0.473-0.084 0.9 0.023 1.28 0.32-0.628 0.862-1.055 0.755-1.28-0.32z"></path>
<path d="M18.72 5.92c0.32 0 0.64 0 0.96 0 0 0.32 0 0.64 0 0.96-0.32 0-0.64 0-0.96 0 0-0.32 0-0.64 0-0.96z"></path>
<path d="M19.040 7.84c0.593-0.073 0.86 0.14 0.8 0.64-0.843 0.382-1.11 0.168-0.8-0.64z"></path>
<path d="M15.2 13.28c0.426 2.444 0.639 5.004 0.64 7.68-0.107 2.56-0.213 5.12-0.32 7.68-0.32-5.116-0.427-10.236-0.32-15.36z"></path>
<path d="M10.4 14.88c0.319-0.027 0.585 0.079 0.8 0.32 1.793 3.342 2.326 6.862 1.6 10.56-0.132 0.146-0.292 0.253-0.48 0.32-0.063-2.282-0.223-4.522-0.48-6.72-0.58-1.475-1.060-2.969-1.44-4.48z"></path>
<path d="M20 14.88c0.348 0.038 0.561 0.252 0.64 0.64-0.638 1.328-1.118 2.715-1.44 4.16-0.042 2.15-0.096 4.283-0.16 6.4-0.522-0.499-0.788-1.139-0.8-1.92-0.579-3.346 0.008-6.439 1.76-9.28z"></path>
</symbol>
<symbol id="icon-vinyk" viewBox="0 0 32 32">
<path d="M19.45 0.063c-0.075 0.031-0.344 0.213-0.594 0.394-1.288 0.956-2.156 1.937-2.725 3.087l-0.231 0.469-0.375-0.456c-0.2-0.25-0.563-0.619-0.8-0.825-0.419-0.356-0.444-0.369-0.719-0.337-0.231 0.025-0.325 0.075-0.488 0.263-0.3 0.35-0.756 1.050-1.088 1.675-0.3 0.569-0.744 1.788-0.744 2.031 0 0.075-0.025 0.144-0.056 0.162-0.031 0.025-0.281-0.106-0.556-0.281-0.887-0.563-1.225-0.481-1.619 0.375-0.588 1.281-0.825 2.169-0.875 3.306-0.031 0.731-0.050 0.825-0.137 0.794-0.769-0.3-1.169-0.094-1.35 0.7-0.162 0.719-0.225 1.313-0.225 2.15v0.85l-0.369-0.006c-0.306-0.006-0.388 0.019-0.525 0.144-0.213 0.2-0.275 0.456-0.35 1.387-0.112 1.506 0.144 3 0.675 3.931 0.263 0.456 0.669 0.95 1.013 1.219l0.313 0.25-3.681 3.688c-2.025 2.025-3.731 3.788-3.794 3.906-0.163 0.306-0.156 1.012 0 1.344 0.156 0.325 1.244 1.413 1.569 1.569 0.331 0.156 1.038 0.162 1.344 0 0.119-0.063 1.881-1.769 3.912-3.8l3.694-3.688 0.1 0.156c0.175 0.275 0.725 0.788 1.063 1 1.094 0.688 2.487 0.975 4.169 0.856 0.975-0.069 1.238-0.131 1.444-0.35 0.125-0.137 0.15-0.219 0.144-0.525l-0.006-0.369h0.85c1.119 0 2.319-0.181 2.663-0.406 0.262-0.175 0.369-0.456 0.294-0.781-0.038-0.163-0.081-0.331-0.106-0.387-0.031-0.087 0.063-0.106 0.794-0.137 1.137-0.050 2.025-0.288 3.306-0.875 0.856-0.394 0.938-0.731 0.375-1.619-0.175-0.275-0.306-0.525-0.281-0.556 0.019-0.031 0.087-0.056 0.163-0.056 0.244 0 1.462-0.444 2.031-0.744 0.625-0.331 1.325-0.788 1.675-1.087 0.188-0.163 0.238-0.256 0.262-0.481 0.025-0.269 0.012-0.3-0.344-0.719-0.2-0.244-0.575-0.606-0.819-0.813l-0.456-0.369 0.469-0.231c1.163-0.575 2.144-1.45 3.119-2.769 0.663-0.906 0.55-1.238-0.556-1.694-0.231-0.1-0.45-0.2-0.481-0.225-0.031-0.031 0.012-0.156 0.1-0.294 0.625-0.938 1.15-2.506 1.269-3.8 0.038-0.338 0.025-0.481-0.050-0.625-0.163-0.319-0.344-0.369-1.3-0.369-0.481 0-0.869-0.006-0.869-0.019 0-0.006 0.069-0.15 0.15-0.313 0.394-0.787 0.731-2.056 0.856-3.275 0.075-0.75 0-1-0.35-1.15-0.55-0.231-2.994 0.262-4.106 0.825-0.163 0.081-0.306 0.15-0.313 0.15-0.012 0-0.019-0.387-0.019-0.869 0-0.956-0.050-1.137-0.369-1.3-0.144-0.075-0.288-0.087-0.625-0.050-1.288 0.119-2.863 0.644-3.794 1.262-0.225 0.15-0.369 0.15-0.369 0.006 0-0.131-0.488-1.087-0.606-1.194-0.156-0.138-0.5-0.188-0.694-0.106zM20 2.069c0.269 0.875 0.519 0.95 1.25 0.369 0.519-0.419 1.225-0.788 1.962-1.025 0.587-0.194 1.556-0.381 1.694-0.331 0.225 0.094 0.044 1.531-0.275 2.163-0.163 0.319-0.169 0.594-0.006 0.756 0.225 0.225 0.438 0.162 0.962-0.275 0.269-0.219 0.675-0.5 0.9-0.619 0.738-0.388 1.881-0.712 2.906-0.831 0.425-0.050 0.413-0.106 0.238 0.925-0.238 1.362-0.663 2.375-1.356 3.212-0.438 0.525-0.5 0.737-0.275 0.963 0.169 0.169 0.419 0.156 0.825-0.031 0.469-0.219 1.137-0.356 1.644-0.331l0.438 0.019-0.012 0.35c-0.050 1.050-0.688 2.606-1.45 3.525-0.444 0.537-0.319 0.856 0.425 1.075 0.194 0.056 0.512 0.169 0.706 0.256l0.356 0.15-0.363 0.481c-0.425 0.556-1.306 1.406-1.806 1.75-0.356 0.238-1.081 0.588-1.394 0.662-0.156 0.037-0.163 0.031-0.163-0.25 0-0.344-0.15-0.525-0.944-1.125l-0.512-0.394 0.225-0.144c0.831-0.512 1.794-1.5 2.469-2.525 0.469-0.706 0.544-0.938 0.406-1.231-0.137-0.281-0.306-0.375-1.194-0.644-0.413-0.125-0.756-0.238-0.769-0.244-0.012-0.012 0.094-0.256 0.238-0.537 0.481-0.956 0.875-2.5 0.875-3.425 0-0.356-0.019-0.419-0.181-0.581s-0.225-0.181-0.581-0.181c-0.925 0-2.469 0.394-3.425 0.875-0.281 0.144-0.525 0.25-0.538 0.237-0.006-0.013-0.119-0.356-0.244-0.769-0.269-0.888-0.363-1.056-0.644-1.194-0.3-0.138-0.531-0.063-1.256 0.419-0.719 0.481-0.844 0.725-0.538 1.025 0.225 0.231 0.438 0.2 0.9-0.125 0.225-0.156 0.425-0.281 0.45-0.281 0.069 0 0.281 0.719 0.425 1.425 0.063 0.325 0.169 0.638 0.225 0.7 0.181 0.2 0.462 0.156 0.856-0.125 0.488-0.344 1.238-0.706 1.863-0.9 0.481-0.144 1.681-0.375 1.731-0.331 0.044 0.050-0.188 1.25-0.331 1.731-0.194 0.625-0.556 1.375-0.9 1.863-0.281 0.394-0.325 0.675-0.125 0.856 0.063 0.056 0.375 0.162 0.7 0.225 0.719 0.144 1.425 0.356 1.425 0.425 0 0.075-0.675 1.006-0.944 1.294-0.681 0.744-1.344 1.244-2.087 1.581-0.275 0.125-0.431 0.238-0.481 0.35-0.131 0.287-0.006 0.463 0.556 0.813 0.525 0.319 1.262 0.85 1.269 0.906 0 0.069-1.406 0.963-1.837 1.156-0.419 0.2-1.45 0.531-1.625 0.531-0.169 0-0.363 0.294-0.337 0.506 0.019 0.188 0.075 0.25 0.569 0.575 0.3 0.194 0.544 0.381 0.544 0.413s-0.188 0.219-0.419 0.413c-0.238 0.2-0.488 0.431-0.563 0.512-0.294 0.313-0.094 0.769 0.337 0.769 0.169 0 0.3-0.087 0.731-0.469 1.137-1.012 1.256-1.344 0.681-1.875-0.212-0.194-0.225-0.219-0.113-0.256 0.431-0.156 1.231-0.569 1.675-0.856l0.519-0.337 0.194 0.163c0.106 0.087 0.394 0.288 0.644 0.444s0.675 0.488 0.95 0.744l0.488 0.456-0.387 0.275c-0.981 0.694-2.212 1.175-3.244 1.275-0.775 0.075-0.931 0.156-0.931 0.488 0 0.181 0.050 0.3 0.219 0.494 0.238 0.281 0.844 1.144 0.844 1.206 0 0.050-0.512 0.262-1.219 0.5-1.044 0.356-2.006 0.456-2.906 0.3-0.831-0.144-1.006 0.069-0.731 0.906 0.094 0.281 0.169 0.544 0.169 0.581 0 0.2-1.569 0.288-3.369 0.2-0.3-0.019-0.35 0-0.462 0.15-0.131 0.169-0.131 0.181-0.025 0.619 0.063 0.25 0.094 0.462 0.075 0.488-0.075 0.075-1.994 0.081-2.45 0.006-0.569-0.087-1.25-0.319-1.637-0.544-0.356-0.206-0.838-0.656-1.012-0.938-0.125-0.2-0.125-0.219-0.025-0.331 0.063-0.069 0.231-0.169 0.375-0.225 0.225-0.081 0.325-0.087 0.594-0.031 0.469 0.1 1.419 0.081 2.006-0.031 0.431-0.087 0.588-0.094 0.988-0.031 0.65 0.094 1.394 0.087 2.188-0.025 0.706-0.106 1.744-0.363 2.012-0.5 0.369-0.194 0.462-0.6 0.238-1.044-0.137-0.269-0.1-0.356 0.144-0.363 0.2 0 1.056-0.3 1.181-0.413 0.163-0.15 0.156-0.488-0.019-0.65-0.175-0.156-0.369-0.156-0.831 0.006-0.219 0.075-0.637 0.15-1 0.175-0.35 0.025-0.663 0.069-0.706 0.094-0.050 0.025-0.094-0.012-0.131-0.106-0.031-0.081-0.163-0.238-0.288-0.35s-0.225-0.206-0.212-0.219c0.012-0.006 0.194-0.106 0.4-0.225 0.825-0.456 1.694-1.256 2.438-2.256 0.6-0.806 0.738-1.087 0.656-1.375s-0.206-0.394-0.644-0.575l-0.356-0.144 0.313-0.306c1.012-0.994 1.788-2.912 1.913-4.725l0.044-0.594-0.212-0.206-0.206-0.213-0.594 0.044c-1.794 0.125-3.738 0.906-4.694 1.881-0.15 0.156-0.294 0.281-0.313 0.281s-0.087-0.137-0.15-0.313c-0.137-0.375-0.406-0.625-0.688-0.625-0.213 0-0.9 0.387-1.412 0.8-0.881 0.706-1.756 1.694-2.15 2.431l-0.175 0.319-0.262-0.275c-0.15-0.15-0.319-0.275-0.375-0.275-0.081 0-0.1-0.031-0.069-0.113 0.025-0.056 0.069-0.375 0.1-0.7 0.025-0.325 0.088-0.738 0.137-0.906 0.131-0.475 0.494-1.206 0.844-1.731 0.331-0.488 1.188-1.456 1.287-1.456 0.031 0 0.213 0.238 0.406 0.531 0.313 0.475 0.375 0.531 0.563 0.55 0.213 0.025 0.506-0.169 0.506-0.338 0-0.175 0.331-1.206 0.525-1.619 0.206-0.444 1.088-1.844 1.156-1.844 0.063 0.006 0.581 0.731 0.913 1.269 0.35 0.563 0.525 0.688 0.813 0.556 0.113-0.050 0.225-0.206 0.356-0.494 0.1-0.231 0.3-0.581 0.431-0.781 0.319-0.463 0.356-0.656 0.181-0.881-0.094-0.119-0.188-0.169-0.337-0.169-0.238 0-0.375 0.119-0.656 0.556l-0.212 0.325-0.356-0.487c-0.2-0.269-0.475-0.6-0.619-0.731-0.219-0.213-0.288-0.244-0.538-0.244-0.281 0-0.288-0.006-0.25-0.162 0.081-0.319 0.425-1.044 0.675-1.413 0.344-0.5 1.156-1.344 1.731-1.781l0.469-0.363 0.137 0.287c0.075 0.163 0.194 0.481 0.269 0.706zM15.313 4.869c0.156 0.256 0.356 0.544 0.444 0.65l0.162 0.194-0.338 0.519c-0.287 0.444-0.7 1.244-0.856 1.675-0.037 0.113-0.063 0.1-0.256-0.112-0.475-0.519-0.75-0.463-1.5 0.294-1 1-1.7 2.063-2.069 3.144-0.119 0.338-0.213 0.669-0.213 0.738-0.006 0.262-0.088 0.3-0.363 0.162-0.325-0.169-0.6-0.169-0.831-0.006-0.137 0.1-0.219 0.262-0.363 0.706-0.394 1.238-0.537 2.706-0.363 3.769 0.081 0.488 0.081 0.625 0.012 0.931-0.131 0.55-0.175 1.262-0.106 1.731 0.056 0.375 0.050 0.456-0.094 0.844-0.081 0.231-0.175 0.45-0.206 0.481-0.131 0.137-0.888-0.544-1.206-1.094-0.225-0.387-0.456-1.069-0.544-1.637-0.075-0.456-0.069-2.375 0.006-2.45 0.025-0.019 0.237 0.012 0.487 0.075 0.438 0.106 0.45 0.106 0.619-0.025 0.15-0.113 0.169-0.162 0.15-0.463-0.088-1.8 0-3.369 0.2-3.369 0.037 0 0.3 0.075 0.581 0.169 0.838 0.275 1.050 0.1 0.906-0.731-0.156-0.9-0.056-1.863 0.3-2.906 0.238-0.706 0.45-1.219 0.5-1.219 0.063 0 0.95 0.619 1.125 0.781 0.363 0.344 0.738 0.394 0.912 0.125 0.050-0.075 0.119-0.425 0.15-0.775 0.094-1.019 0.5-2.075 1.213-3.15l0.319-0.487 0.469 0.494c0.256 0.269 0.594 0.694 0.75 0.944zM21.712 10.794c-0.288 1.8-1.050 3.225-2.163 4-0.531 0.369-0.644 0.512-0.587 0.738 0.063 0.244 0.194 0.325 0.85 0.525 0.344 0.113 0.625 0.212 0.625 0.238 0 0.094-0.606 0.863-1.031 1.319-0.744 0.788-1.488 1.294-2.375 1.6-0.7 0.244-0.706 0.613-0.031 1.119 0.225 0.169 0.413 0.325 0.425 0.35 0.025 0.081-0.938 0.744-1.556 1.063-1.194 0.625-2.362 0.831-3.388 0.606l-0.469-0.106-0.387 0.163c-0.725 0.306-1.569 0.181-1.969-0.294-0.213-0.25-0.369-0.813-0.319-1.156 0.019-0.15 0.113-0.462 0.2-0.688 0.156-0.394 0.162-0.431 0.1-0.981-0.169-1.488 0.356-2.988 1.6-4.588l0.113-0.144 0.294 0.4c0.369 0.506 0.438 0.563 0.681 0.556s0.375-0.144 0.519-0.544c0.3-0.85 0.869-1.688 1.606-2.375 0.463-0.431 1.175-0.969 1.281-0.969 0.031 0 0.144 0.281 0.262 0.625 0.219 0.675 0.306 0.769 0.644 0.738 0.169-0.019 0.256-0.094 0.563-0.525 0.788-1.119 2.1-1.838 3.894-2.15 0.344-0.063 0.644-0.1 0.663-0.088 0.025 0.012 0 0.269-0.044 0.569zM10.5 13.325c0.287 0.169 0.419 0.281 0.381 0.325-0.025 0.037-0.231 0.294-0.45 0.569-0.225 0.275-0.481 0.637-0.581 0.8-0.094 0.169-0.188 0.294-0.2 0.281-0.075-0.075 0.306-2.237 0.394-2.237 0.012 0 0.219 0.119 0.456 0.262zM18.681 21.512c0.137 0.212 0.238 0.406 0.219 0.431-0.063 0.106-1.981 0.475-2.075 0.4-0.012-0.012 0.175-0.144 0.406-0.3s0.594-0.431 0.8-0.6c0.206-0.175 0.381-0.319 0.387-0.319s0.125 0.175 0.262 0.387zM8.644 22.244c0.094 0.2 0.281 0.481 0.425 0.619 0.25 0.25 0.825 0.575 1.019 0.575 0.056 0 0.1 0.019 0.1 0.050 0 0.025-0.313 0.356-0.688 0.731l-0.688 0.688-0.856-0.863-0.862-0.856 0.656-0.656c0.363-0.363 0.669-0.656 0.688-0.656s0.113 0.163 0.206 0.369zM7.769 25.95c-0.2 0.2-0.388 0.363-0.425 0.363-0.031 0-0.431-0.375-0.888-0.825l-0.831-0.831 0.781-0.781 1.719 1.719-0.356 0.356zM6.625 27.031c0 0.038-0.256 0.319-0.563 0.625l-0.563 0.563-0.856-0.863-0.862-0.856 1.188-1.188 0.825 0.825c0.456 0.456 0.831 0.856 0.831 0.894zM4.456 29.262c-0.2 0.2-0.388 0.363-0.425 0.363-0.031 0-0.431-0.375-0.888-0.825l-0.831-0.831 0.781-0.781 1.719 1.719-0.356 0.356zM3.112 30.606c-0.325 0.331-0.6 0.469-0.85 0.419-0.231-0.044-1.231-1.044-1.288-1.288s0.056-0.481 0.387-0.819l0.287-0.294 1.725 1.712-0.263 0.269z"></path>
</symbol>
<symbol id="icon-bath2" viewBox="0 0 32 32">
<path d="M2.681 0.087c-0.263 0.094-0.369 0.163-1.494 1.012-0.463 0.35-0.894 0.719-0.95 0.819-0.063 0.106-0.144 0.331-0.181 0.512-0.125 0.6-0.050 0.731 1.775 3.194l1.65 2.225-0.237 1.619c-0.219 1.456-0.244 1.756-0.244 2.856 0 1.375 0.038 1.575 0.413 2.144 0.319 0.475 0.331 0.675 0.087 1.4l-0.206 0.612-0.519 0.038c-0.938 0.056-1.706 0.556-2.087 1.369-0.1 0.206-0.2 0.525-0.219 0.7-0.037 0.337 1.1 10.775 1.225 11.256 0.188 0.688 0.781 1.431 1.425 1.775 0.769 0.406-0.094 0.381 12.856 0.381 7.612 0 11.875-0.025 12.094-0.063 1.063-0.2 2.050-1.137 2.3-2.194 0.106-0.444 1.175-10.225 1.413-12.944 0.225-2.581 0.225-2.8 0-3.338-0.587-1.412-2.337-1.925-3.613-1.044-0.381 0.262-0.762 0.819-0.881 1.281-0.081 0.325-0.35 2.838-0.35 3.3 0 0.119-0.025 0.113-0.306-0.081-0.163-0.119-0.425-0.244-0.575-0.288l-0.275-0.075-0.006-0.425c0-0.537-0.225-1.019-0.625-1.375-0.331-0.287-0.663-0.412-1.394-0.506-0.294-0.037-0.613-0.113-0.706-0.162-0.231-0.119-0.4-0.4-0.45-0.75-0.069-0.519-0.419-1.037-0.881-1.306-0.144-0.088-0.5-0.213-0.788-0.275-0.688-0.15-0.781-0.2-1.275-0.756-0.494-0.55-0.644-0.831-0.869-1.619-0.256-0.912-0.494-1.338-1.069-1.919-0.55-0.55-0.887-0.769-1.581-1-0.675-0.231-1.319-0.256-2.213-0.094-1.156 0.206-1.412 0.169-1.781-0.263-0.25-0.294-0.581-0.531-0.9-0.638-0.15-0.050-1.050-0.206-1.994-0.344-0.944-0.144-1.75-0.287-1.794-0.331-0.037-0.044-0.787-1.038-1.663-2.219-0.875-1.175-1.681-2.212-1.8-2.3-0.369-0.269-0.875-0.344-1.313-0.188zM3.369 1.056c0.063 0.038 0.188 0.175 0.288 0.319l0.175 0.256-0.15 0.106c-0.081 0.056-0.594 0.437-1.137 0.844-0.55 0.406-1.031 0.756-1.075 0.769-0.044 0.019-0.163-0.1-0.275-0.269-0.331-0.494-0.3-0.544 1.044-1.519 0.763-0.556 0.913-0.619 1.131-0.506zM4.769 2.862l0.294 0.419-0.3 0.038c-0.694 0.087-1.669 0.131-1.606 0.069 0.094-0.094 1.244-0.944 1.281-0.944 0.019-0.006 0.162 0.188 0.331 0.419zM4.838 4.388c-0.15 0.244-1.362 1.675-1.406 1.663-0.056-0.019-1.119-1.431-1.119-1.494 0-0.025 1.406-0.162 2.425-0.231 0.1-0.013 0.131 0.013 0.1 0.063zM6.463 5.15c0.237 0.325 0.469 0.606 0.519 0.625 0.050 0.025 0.956 0.169 2.006 0.325 1.056 0.156 1.975 0.313 2.044 0.35s0.269 0.213 0.444 0.394c0.631 0.656 1.156 0.769 2.494 0.531 1.188-0.213 1.894-0.1 2.65 0.425 0.65 0.444 0.956 0.956 1.344 2.263 0.194 0.656 0.5 1.144 1.131 1.806 0.525 0.55 0.762 0.675 1.563 0.856 0.556 0.119 0.869 0.35 0.938 0.688 0.119 0.588 0.238 0.85 0.538 1.175 0.375 0.412 0.7 0.55 1.55 0.662 0.494 0.069 0.619 0.113 0.794 0.262 0.238 0.206 0.363 0.538 0.306 0.788-0.031 0.156-0.075 0.181-0.45 0.25-0.5 0.094-0.919 0.313-1.244 0.644l-0.231 0.238-0.288-0.256c-0.156-0.137-0.469-0.344-0.694-0.45-0.394-0.188-0.438-0.194-1.25-0.194-0.819 0-0.856 0.006-1.262 0.2-0.231 0.106-0.538 0.306-0.688 0.444l-0.275 0.25-0.244-0.244c-0.137-0.137-0.431-0.337-0.656-0.45l-0.406-0.2h-2.131l-0.469 0.231c-0.25 0.125-0.556 0.325-0.675 0.444l-0.206 0.219-0.262-0.256c-0.137-0.137-0.438-0.337-0.662-0.444-0.394-0.188-0.438-0.194-1.25-0.194-1.012 0-1.369 0.113-1.894 0.594l-0.338 0.306-0.181-0.188c-0.481-0.5-1.144-0.744-2.025-0.744-0.862 0-1.356 0.175-1.888 0.675l-0.306 0.281-0.6-0.587 0.244-0.7c0.213-0.613 0.244-0.75 0.213-1.106-0.031-0.456-0.15-0.775-0.438-1.188l-0.194-0.281-0.025-1.125c-0.019-1.056 0-1.238 0.25-3.006l0.269-1.875-0.463-0.638 0.7-0.869c0.775-0.963 1.237-1.519 1.263-1.519 0.006 0 0.206 0.263 0.438 0.588zM30.2 13.131c0.3 0.156 0.594 0.519 0.706 0.881 0.075 0.269 0.069 0.531-0.131 2.781-0.194 2.275-0.337 3.756-0.438 4.438l-0.038 0.269h-1.4c-0.769 0-1.4-0.012-1.4-0.025s0.069-0.725 0.156-1.575c0.081-0.856 0.238-2.5 0.344-3.65s0.219-2.2 0.256-2.331c0.2-0.769 1.181-1.169 1.944-0.787zM3.494 17.663c0.406 0.206 0.663 0.544 0.75 0.981 0.037 0.181 0.106 0.831 0.162 1.45s0.112 1.188 0.131 1.262l0.025 0.144h-1.4c-1.281 0-1.406-0.006-1.438-0.113-0.012-0.056-0.094-0.681-0.169-1.394l-0.137-1.281 0.156-0.35c0.356-0.769 1.175-1.069 1.919-0.7zM7.706 17.569c0.306 0.081 0.719 0.456 0.862 0.775 0.075 0.175 0.131 0.55 0.175 1.25 0.037 0.55 0.088 1.206 0.106 1.45l0.037 0.456h-1.662c-1.287 0-1.662-0.019-1.662-0.081 0-0.038-0.056-0.637-0.125-1.331-0.112-1.113-0.112-1.288-0.037-1.55 0.213-0.694 0.725-1.038 1.569-1.038 0.275 0 0.606 0.031 0.737 0.069zM12.25 17.631c0.681 0.306 0.819 0.606 0.881 1.869 0.025 0.531 0.050 1.2 0.050 1.481l0.006 0.519h-3.294l-0.044-0.481c-0.019-0.269-0.056-0.925-0.081-1.462l-0.037-0.975 0.175-0.325c0.306-0.556 0.7-0.75 1.531-0.75 0.406-0.006 0.6 0.025 0.813 0.125zM17.1 17.65c0.181 0.081 0.4 0.25 0.494 0.375 0.313 0.406 0.337 0.581 0.306 1.944-0.019 0.688-0.044 1.313-0.063 1.387l-0.025 0.144h-3.606l-0.050-1.363c-0.050-1.637-0.025-1.794 0.4-2.2 0.162-0.156 0.387-0.319 0.506-0.356s0.556-0.069 0.969-0.075c0.669-0.006 0.788 0.012 1.069 0.144zM21.337 17.575c0.15 0.044 0.381 0.2 0.544 0.363 0.438 0.419 0.462 0.563 0.363 2.2l-0.081 1.363h-3.306l0.038-1.444c0.038-1.219 0.063-1.481 0.163-1.7 0.144-0.331 0.481-0.65 0.794-0.762 0.306-0.113 1.144-0.119 1.488-0.019zM25.906 17.637c0.462 0.244 0.775 0.744 0.781 1.238 0 0.156-0.044 0.806-0.106 1.45l-0.106 1.175h-3.288v-0.238c0.006-0.644 0.188-2.694 0.25-2.856 0.125-0.325 0.363-0.575 0.7-0.75 0.306-0.15 0.381-0.163 0.956-0.144 0.413 0.019 0.688 0.056 0.813 0.125zM30.188 22.575c0 0.044-0.069 0.688-0.156 1.425s-0.156 1.381-0.156 1.419c0 0.063-2.813 0.081-13.844 0.081h-13.838l-0.031-0.206c-0.056-0.319-0.288-2.469-0.288-2.637v-0.156h14.156c11.281 0 14.156 0.019 14.156 0.075zM5.237 28.637c0.112 1.181 0.206 2.194 0.2 2.25 0 0.1-0.069 0.113-0.588 0.113-1.031 0-1.65-0.325-2.025-1.063-0.188-0.375-0.212-0.506-0.356-1.8-0.087-0.769-0.156-1.45-0.156-1.512 0-0.119 0.050-0.125 1.363-0.125h1.362l0.2 2.137zM9.213 26.887c0.025 0.219 0.081 1.069 0.131 1.894s0.106 1.663 0.125 1.863l0.037 0.356-1.519-0.012-1.519-0.019-0.2-2.094c-0.112-1.15-0.2-2.156-0.206-2.238v-0.137h3.113l0.037 0.387zM13.4 27.762c0.019 0.7 0.056 1.712 0.075 2.25l0.044 0.988h-3.013l-0.031-0.331c-0.019-0.175-0.081-1.069-0.131-1.981s-0.113-1.775-0.131-1.925l-0.031-0.262h3.175l0.044 1.262zM17.663 27.169c-0.019 0.375-0.056 1.387-0.075 2.256l-0.044 1.575h-3.025l-0.044-0.988c-0.019-0.538-0.056-1.55-0.075-2.25l-0.044-1.262h3.35l-0.044 0.669zM21.813 26.731c0 0.131-0.056 1.094-0.125 2.144s-0.125 1.956-0.125 2.012c0 0.106-0.113 0.113-1.506 0.113h-1.512l0.044-1.55c0.019-0.85 0.056-1.863 0.075-2.25l0.044-0.7h3.106v0.231zM25.975 26.762c-0.025 0.15-0.106 1.025-0.194 1.956-0.087 0.925-0.175 1.819-0.194 1.988l-0.038 0.294h-3.006l0.038-0.488c0.025-0.262 0.087-1.244 0.144-2.169 0.050-0.931 0.106-1.725 0.125-1.769 0.012-0.056 0.387-0.075 1.587-0.075h1.569l-0.031 0.262zM29.75 26.525c0 0.319-0.344 2.962-0.413 3.181-0.131 0.406-0.619 0.925-1.038 1.113-0.262 0.113-0.475 0.15-1.031 0.169l-0.706 0.025 0.031-0.269c0.044-0.344 0.406-4.088 0.406-4.175 0-0.050 0.456-0.069 1.375-0.069 0.756 0 1.375 0.012 1.375 0.025z"></path>
<path d="M6.731 8.125c-0.263 0.206-0.263 0.325 0.019 1.044 0.237 0.606 0.263 0.713 0.237 1.081-0.037 0.512-0.156 0.744-0.625 1.238-0.325 0.338-0.369 0.412-0.338 0.563 0.056 0.219 0.313 0.45 0.506 0.45 0.35 0 1.050-0.75 1.288-1.375 0.287-0.75 0.231-1.438-0.206-2.488-0.263-0.631-0.531-0.787-0.881-0.512z"></path>
<path d="M11.95 9.331c-0.15 0.162-0.175 0.456-0.056 0.613 0.206 0.269 1.531 1.25 1.831 1.369 0.925 0.344 2.169 0.25 2.4-0.181 0.106-0.206 0.069-0.444-0.1-0.606-0.169-0.175-0.2-0.175-0.869-0.031-0.344 0.081-0.838 0.012-1.156-0.15-0.1-0.050-0.481-0.338-0.838-0.625-0.731-0.594-0.956-0.662-1.213-0.387z"></path>
<path d="M9.262 11.6c-0.244 0.169-0.275 0.3-0.169 0.706 0.181 0.7 0.1 1.125-0.344 1.738-0.137 0.194-0.25 0.406-0.25 0.469 0 0.175 0.338 0.488 0.525 0.488 0.35 0 0.887-0.719 1.075-1.438 0.069-0.281 0.094-0.55 0.069-0.881-0.063-0.931-0.456-1.4-0.906-1.081z"></path>
<path d="M12.844 13.188c-0.169 0.063-0.262 0.181-0.313 0.381-0.031 0.125 0.037 0.275 0.338 0.731 0.431 0.65 0.787 0.95 1.325 1.1 0.469 0.137 0.588 0.131 1.888-0.094 1.238-0.206 1.419-0.287 1.419-0.625 0-0.256-0.056-0.363-0.256-0.469-0.163-0.081-0.281-0.075-1.338 0.106-0.719 0.119-1.244 0.181-1.381 0.156-0.287-0.056-0.575-0.319-0.906-0.825-0.306-0.475-0.488-0.581-0.775-0.463z"></path>
<path d="M29.212 14.144c-0.156 0.137-0.169 0.2-0.25 1.012-0.050 0.481-0.069 0.919-0.050 0.981 0.1 0.331 0.512 0.462 0.775 0.25 0.169-0.137 0.225-0.431 0.288-1.394l0.044-0.719-0.175-0.137c-0.225-0.175-0.419-0.175-0.631 0.006z"></path>
</symbol>
<symbol id="icon-swing" viewBox="0 0 32 32">
<path d="M9.25 0.75c-1.899 0.492-3.899 0.658-6 0.5 0.139 1.916 0.305 3.833 0.5 5.75-0.743 7.736-1.243 15.486-1.5 23.25 1.146 0.128 2.23-0.038 3.25-0.5 0.724-8.493 1.307-16.993 1.75-25.5 0.881-0.071 1.715 0.095 2.5 0.5 0.701 6.203 0.535 12.37-0.5 18.5 4.333 0 8.667 0 13 0-1.035-6.13-1.201-12.297-0.5-18.5 0.785-0.405 1.619-0.571 2.5-0.5 0.443 8.507 1.026 17.007 1.75 25.5 1.020 0.462 2.104 0.628 3.25 0.5-0.257-7.764-0.757-15.514-1.5-23.25 0.195-1.917 0.361-3.834 0.5-5.75-6.329-0.12-12.662-0.287-19-0.5zM10.25 1.75c0.543 0.060 0.876 0.393 1 1-0.167 0.333-0.333 0.667-0.5 1-0.464-0.594-0.631-1.261-0.5-2zM20.25 1.75c0.543 0.060 0.876 0.393 1 1-0.167 0.333-0.333 0.667-0.5 1-0.464-0.594-0.631-1.261-0.5-2zM4.25 2.25c1.699-0.16 3.366 0.006 5 0.5-0.833 0.167-1.667 0.333-2.5 0.5-1.070-0.028-1.903-0.361-2.5-1zM12.25 2.25c2.357-0.163 4.69 0.003 7 0.5-1.167 0.167-2.333 0.333-3.5 0.5-1.385-0.014-2.551-0.348-3.5-1zM22.25 2.25c1.699-0.16 3.366 0.006 5 0.5-0.833 0.167-1.667 0.333-2.5 0.5-1.070-0.028-1.903-0.361-2.5-1zM12.25 4.25c2.532-0.141 5.032 0.026 7.5 0.5 0.499 5.156 0.666 10.323 0.5 15.5-3 0-6 0-9 0-0.303-5.462 0.030-10.795 1-16zM10.25 21.25c3.682-0.165 7.348 0.001 11 0.5-1.833 0.167-3.667 0.333-5.5 0.5-2.033-0.006-3.866-0.339-5.5-1z"></path>
</symbol>
<symbol id="icon-check" viewBox="0 0 24 24">
<path d="M16.972 6.251c-0.967-0.538-2.185-0.188-2.72 0.777l-3.713 6.682-2.125-2.125c-0.781-0.781-2.047-0.781-2.828 0s-0.781 2.047 0 2.828l4 4c0.378 0.379 0.888 0.587 1.414 0.587 0.092 0 0.185-0.006 0.277-0.020 0.621-0.087 1.166-0.46 1.471-1.009l5-9c0.537-0.966 0.189-2.183-0.776-2.72z"></path>
</symbol>
<symbol id="icon-ice" viewBox="0 0 32 32">
<path d="M11.5 2.833c-1.098 0.303-1.931 0.97-2.5 2 0.168 3.227 0.112 6.449-0.167 9.667-1.781-0.055-3.559 0-5.333 0.167-0.833 0.389-1.444 1-1.833 1.833 0.24 2.943 0.184 5.887-0.167 8.833-0.126 2.139 0.874 3.306 3 3.5 3.102-0.26 6.213-0.427 9.333-0.5 0.784-0.711 1.118-1.6 1-2.667-0.343-2.942-0.343-5.886 0-8.833 0.701-0.1 1.368 0.011 2 0.333-0.782 2.982-0.837 5.982-0.167 9 0.255 1.603 1.2 2.492 2.833 2.667 2.494-0.864 4.994-0.864 7.5 0 0.962-0.134 1.74-0.579 2.333-1.333 0.729-3.175 0.952-6.397 0.667-9.667-0.296-1.204-1.018-2.037-2.167-2.5-1.573-0.074-3.129-0.24-4.667-0.5-0.167-2.64-0.167-5.307 0-8 0.050-1.178-0.395-2.123-1.333-2.833-3.417-0.546-6.861-0.935-10.333-1.167zM11.833 5.167c2.962 0.247 5.907 0.58 8.833 1-0.256 1.996-0.2 3.996 0.167 6-0.094 0.877-0.316 1.71-0.667 2.5-2.904 0.055-5.793-0.112-8.667-0.5-0.030-2.164-0.141-4.331-0.333-6.5 0.044-0.926 0.266-1.759 0.667-2.5zM4.167 16.833c2.685-0.101 5.352 0.011 8 0.333-0.050 2.994 0.061 5.994 0.333 9-2.875 0.039-5.709 0.039-8.5 0 0.156-3.138 0.212-6.249 0.167-9.333zM19.167 17.167c2.677-0.007 5.343 0.159 8 0.5 0.167 0.167 0.333 0.333 0.5 0.5 0.245 2.762 0.079 5.484-0.5 8.167-1.257-0.107-2.535-0.273-3.833-0.5-1.253 0.131-2.475 0.353-3.667 0.667-0.222-0.222-0.444-0.444-0.667-0.667-0.646-2.906-0.59-5.795 0.167-8.667z"></path>
</symbol>
<symbol id="icon-bottle" viewBox="0 0 32 32">
<path d="M12.64-0.16c-0.717 1.589-0.824 3.243-0.32 4.96-3.544 1.299-5.091 3.806-4.64 7.52 1.493 1.067 1.493 2.133 0 3.2-0.213 2.773-0.213 5.547 0 8.32 1.493 1.067 1.493 2.133 0 3.2-0.559 1.97-0.079 3.57 1.44 4.8 4.48 0 8.96 0 13.44 0 1.519-1.23 1.999-2.83 1.44-4.8-1.493-1.067-1.493-2.133 0-3.2 0.213-2.773 0.213-5.547 0-8.32-1.493-1.067-1.493-2.133 0-3.2 0.451-3.714-1.096-6.221-4.64-7.52 0.504-1.717 0.397-3.371-0.32-4.96-2.133 0-4.267 0-6.4 0zM13.92 1.12c1.284-0.053 2.564 0 3.84 0.16 0.569 0.683 0.782 1.483 0.64 2.4-1.707 0-3.413 0-5.12 0-0.126-0.964 0.088-1.818 0.64-2.56zM14.56 4.96c0.86-0.053 1.713 0.001 2.56 0.16 0.213 0.32 0.427 0.64 0.64 0.96 2.198 0.429 3.744 1.656 4.64 3.68 0.213 0.64 0.213 1.28 0 1.92-3.654 0.316-7.334 0.423-11.040 0.32 0 0.427 0 0.853 0 1.28 3.413 0 6.827 0 10.24 0 0 0.427 0 0.853 0 1.28-3.413 0-6.827 0-10.24 0 0 0.427 0 0.853 0 1.28 3.628-0.053 7.255 0 10.88 0.16 0.16 0.16 0.32 0.32 0.48 0.48 0.213 2.133 0.213 4.267 0 6.4-0.16 0.16-0.32 0.32-0.48 0.48-3.625 0.16-7.252 0.213-10.88 0.16 0 0.427 0 0.853 0 1.28 3.413 0 6.827 0 10.24 0 0 0.427 0 0.853 0 1.28-3.413 0-6.827 0-10.24 0 0 0.427 0 0.853 0 1.28 3.628-0.053 7.255 0 10.88 0.16 0.703 0.601 0.757 1.294 0.16 2.080-0.375 0.446-0.855 0.712-1.44 0.8-3.413 0.213-6.827 0.213-10.24 0-1.133-0.227-1.773-0.92-1.92-2.080 1.614-1.781 1.667-3.595 0.16-5.44-0.213-2.133-0.213-4.267 0-6.4 1.122-1.285 1.388-2.778 0.8-4.48-0.902-1.804-0.476-3.351 1.28-4.64 0.933-0.489 1.893-0.915 2.88-1.28 0.258-0.356 0.471-0.729 0.64-1.12z"></path>
</symbol>
<symbol id="icon-citrus" viewBox="0 0 32 32">
<path d="M24.48 1.12c-7.669 7.829-15.402 15.616-23.2 23.36-0.213 0.427-0.213 0.853 0 1.28 2.407 2.506 5.34 4.053 8.8 4.64 8.958 1.096 15.411-2.371 19.36-10.4 2.499-7.012 1.272-13.252-3.68-18.72-0.414-0.157-0.84-0.21-1.28-0.16zM22.88 4.96c1.637 1.031 2.543 2.524 2.72 4.48-3.105 1.030-6.252 1.83-9.44 2.4 2.305-2.251 4.545-4.545 6.72-6.88zM25.76 11.040c0.198 0.035 0.358 0.142 0.48 0.32 0.16 1.49 0.213 2.983 0.16 4.48-3.060-0.445-6.047-1.192-8.96-2.24 2.808-0.86 5.581-1.713 8.32-2.56zM16.48 15.52c0.019-0.174 0.126-0.28 0.32-0.32 3.033 0.811 6.019 1.717 8.96 2.72-0.654 1.47-1.507 2.803-2.56 4-2.247-2.14-4.487-4.274-6.72-6.4zM11.68 16.16c0.191 0.075 0.298 0.235 0.32 0.48-0.825 2.926-1.625 5.86-2.4 8.8-1.849 0.010-3.396-0.737-4.64-2.24 2.247-2.353 4.487-4.7 6.72-7.040zM15.52 16.8c2.233 2.020 4.367 4.153 6.4 6.4-1.048 1.167-2.328 2.020-3.84 2.56-1.173-2.882-2.027-5.868-2.56-8.96zM13.28 17.44c0.319-0.010 0.532 0.15 0.64 0.48 0.649 2.704 1.396 5.371 2.24 8-1.741 0.918-3.448 0.918-5.12 0 0.921-2.777 1.668-5.604 2.24-8.48z"></path>
</symbol>
<symbol id="icon-soap" viewBox="0 0 24 24">
<path d="M9.141 5.016l-7.219 6.797q-0.938 0.844-0.938 2.156v6.047q0 0.797 0.422 1.477t1.102 1.102 1.477 0.422h13.781q0.516 0 0.867-0.375t0.352-0.891-0.352-0.891-0.867-0.375h-5.766v-0.984h7.734q0.516 0 0.891-0.375t0.375-0.891-0.375-0.867-0.891-0.352h-7.734v-1.031h8.766q0.516 0 0.867-0.352t0.352-0.867-0.352-0.891-0.867-0.375h-8.766v-0.984h6.75q0.516 0 0.891-0.375t0.375-0.891-0.375-0.891-0.891-0.375h-9.891q0.328-0.563 0.68-1.148t0.586-1.008l0.234-0.422q0.141-0.281 0.141-0.563 0-0.375-0.281-0.703l-0.164-0.164t-0.375-0.398-0.375-0.398l-0.164-0.164zM14.016 6.234q0.281 0 0.516 0.234t0.234 0.516q0 0.328-0.234 0.539t-0.516 0.211q-0.328 0-0.539-0.211t-0.211-0.539q0-0.281 0.211-0.516t0.539-0.234zM14.016 4.734q-0.938 0-1.594 0.656t-0.656 1.594 0.656 1.594 1.594 0.656 1.594-0.656 0.656-1.594-0.656-1.594-1.594-0.656v0zM19.734 5.484q0.234 0 0.375 0.164t0.141 0.352-0.141 0.352-0.375 0.164q-0.188 0-0.328-0.164t-0.141-0.352 0.141-0.352 0.328-0.164zM19.734 3.984q-0.797 0-1.383 0.586t-0.586 1.43 0.586 1.43 1.383 0.586q0.844 0 1.43-0.586t0.586-1.43-0.586-1.43-1.43-0.586v0zM16.5 0.984q-0.609 0-1.055 0.445t-0.445 1.055q0 0.656 0.445 1.078t1.055 0.422 1.055-0.422 0.445-1.078q0-0.609-0.445-1.055t-1.055-0.445z"></path>
</symbol>
<symbol id="icon-cream" viewBox="0 0 32 32">
<path d="M18.4 2.4c-0.391 0.46-0.391 0.94 0 1.44-0.083 0.404-0.296 0.724-0.64 0.96-2.889 0.487-5.769 1.020-8.64 1.6-0.572 0.251-1.052 0.624-1.44 1.12-0.233 0.849-0.606 1.596-1.12 2.24-0.064 1.747-0.544 3.347-1.44 4.8-0.213 2.56-0.213 5.12 0 7.68 0.171 1.218 0.491 2.391 0.96 3.52 0.388 0.496 0.868 0.869 1.44 1.12 5.219 0.464 10.446 0.571 15.68 0.32 0.958-0.13 1.652-0.61 2.080-1.44 0.666-2.951 0.879-5.938 0.64-8.96 0.097-1.655-0.383-3.095-1.44-4.32 0.166-0.52 0.273-1.054 0.32-1.6-0.431-1.41-0.698-2.85-0.8-4.32-0.213-0.427-0.427-0.853-0.64-1.28-1.31-1.583-2.964-2.542-4.96-2.88zM19.68 4.64c2.269 0.874 3.122 2.474 2.56 4.8-2.767 0.373-5.541 0.426-8.32 0.16 1.516-0.664 3.116-1.090 4.8-1.28 1.026-0.183 1.56-0.77 1.6-1.76-2.043 0.805-4.176 1.392-6.4 1.76-1.479 1.573-3.185 1.839-5.12 0.8 0.34-0.865 0.98-1.345 1.92-1.44 2.56-0.427 5.12-0.853 7.68-1.28 0.869-0.28 1.295-0.867 1.28-1.76zM7.84 11.040c14.501 0.428 14.501 0.854 0 1.28 0-0.427 0-0.853 0-1.28zM22.24 11.36c1.106 0.053 1.213 0.373 0.32 0.96-0.283-0.264-0.39-0.584-0.32-0.96zM20 25.44c-0.289-0.227-0.396-0.547-0.32-0.96-0.32 0-0.64 0-0.96 0 0 0.427 0 0.853 0 1.28-2.027 0-4.053 0-6.080 0 0-0.32 0-0.64 0-0.96-0.544 0.040-1.024 0.254-1.44 0.64-0.184-0.273-0.397-0.593-0.64-0.96-0.417 0.153-0.79 0.366-1.12 0.64 0.012-0.402-0.148-0.722-0.48-0.96-0.398 0.747-0.931 0.96-1.6 0.64-0.336-1.377-0.603-2.764-0.8-4.16 1.297 0.104 2.577-0.003 3.84-0.32-0.067-0.188-0.174-0.348-0.32-0.48-1.168-0.16-2.342-0.213-3.52-0.16-0.068-0.526 0.038-1.006 0.32-1.44 0.853-0.107 1.707-0.213 2.56-0.32 0.146-0.132 0.253-0.292 0.32-0.48-1.027-0.412-2.040-0.412-3.040 0-0.321-3.58 1.012-4.434 4-2.56 0.239-1.182 0.666-1.182 1.28 0 0.483-0.616 1.123-0.989 1.92-1.12 3.206-0.157 6.406-0.050 9.6 0.32 0.16 0.16 0.32 0.32 0.48 0.48 0.134 1.181 0.294 2.355 0.48 3.52-1.087-0.103-2.154 0.004-3.2 0.32 0.067 0.188 0.174 0.348 0.32 0.48 0.954 0.159 1.914 0.213 2.88 0.16 0 0.427 0 0.853 0 1.28-1.493 0-2.987 0-4.48 0 0 0.32 0 0.64 0 0.96 1.497-0.053 2.99 0 4.48 0.16-0.159 1.324-0.479 2.604-0.96 3.84-0.439 0.28-0.919 0.44-1.44 0.48-0.637-0.538-1.33-0.965-2.080-1.28 0 0.32 0 0.64 0 0.96zM17.76 16.16c1.028-0.126 1.775 0.247 2.24 1.12-0.818 2.014-1.992 3.774-3.52 5.28-2.036-0.969-3.529-2.463-4.48-4.48 0.029-0.616 0.349-0.989 0.96-1.12 0.898-0.141 1.751 0.019 2.56 0.48 0.807-0.349 1.554-0.776 2.24-1.28z"></path>
<path d="M17.44 15.2c3.372 0.011 4.279 1.504 2.72 4.48-0.956 1.594-2.13 2.981-3.52 4.16-1.657-0.829-3.15-1.896-4.48-3.2-2.081-3.731-1.014-5.224 3.2-4.48 0.738-0.267 1.431-0.587 2.080-0.96zM17.76 16.16c-0.686 0.504-1.433 0.931-2.24 1.28-0.809-0.461-1.662-0.621-2.56-0.48-0.611 0.131-0.931 0.504-0.96 1.12 0.951 2.017 2.444 3.511 4.48 4.48 1.528-1.506 2.702-3.266 3.52-5.28-0.465-0.873-1.212-1.246-2.24-1.12z"></path>
<path d="M17.44 17.44c1.016 0.145 1.122 0.465 0.32 0.96-0.283-0.264-0.39-0.584-0.32-0.96z"></path>
<path d="M14.24 19.68c0.32 0 0.64 0 0.96 0-0.239 1.219-0.559 1.219-0.96 0z"></path>
<path d="M15.84 20.32c0.32 0 0.64 0 0.96 0-0.239 1.219-0.559 1.219-0.96 0z"></path>
</symbol>
<symbol id="icon-jar" viewBox="0 0 32 32">
<path d="M4.833 4.833c0 0.667 0 1.333 0 2 0.667 0 1.333 0 2 0 0.103 0.808-0.009 1.586-0.333 2.333-0.55 0.383-1.050 0.827-1.5 1.333-0.222 4.889-0.222 9.778 0 14.667 0.278 0.722 0.778 1.222 1.5 1.5 6.222 0.222 12.444 0.222 18.667 0 0.722-0.278 1.222-0.778 1.5-1.5 0.222-4.889 0.222-9.778 0-14.667-0.45-0.506-0.95-0.951-1.5-1.333-0.325-0.748-0.436-1.525-0.333-2.333 0.667 0 1.333 0 2 0 0-0.667 0-1.333 0-2-7.333 0-14.667 0-22 0zM8.833 6.833c4.667 0 9.333 0 14 0-0.108 1.352 0.003 2.685 0.333 4 0.747 0.177 1.247 0.622 1.5 1.333 0.222 3.889 0.222 7.778 0 11.667-0.167 0.389-0.444 0.667-0.833 0.833-5.459 0.273-10.904 0.217-16.333-0.167-0.231-0.175-0.397-0.397-0.5-0.667-0.222-3.889-0.222-7.778 0-11.667 0.167-0.611 0.556-1 1.167-1.167 4.221-0.167 8.443-0.222 12.667-0.167 0-0.667 0-1.333 0-2-4 0-8 0-12 0 0-0.667 0-1.333 0-2z"></path>
</symbol>
<symbol id="icon-jar1" viewBox="0 0 32 32">
<path d="M6.5 3.833c0 0.889 0 1.778 0 2.667 0.493-0.087 0.937 0.024 1.333 0.333-0.227 0.796-0.505 1.574-0.833 2.333-0.801 0.602-1.357 1.379-1.667 2.333-0.222 4.667-0.222 9.333 0 14 0.5 0.944 1.222 1.667 2.167 2.167 5.556 0.222 11.111 0.222 16.667 0 0.944-0.5 1.667-1.222 2.167-2.167 0.222-4.667 0.222-9.333 0-14-0.31-0.954-0.866-1.732-1.667-2.333-0.329-0.759-0.607-1.537-0.833-2.333 0.396-0.31 0.841-0.421 1.333-0.333 0-0.889 0-1.778 0-2.667-6.222 0-12.444 0-18.667 0zM10.5 6.5c3.556 0 7.111 0 10.667 0 0 0.889 0 1.778 0 2.667-3.556 0-7.111 0-10.667 0 0-0.889 0-1.778 0-2.667z"></path>
</symbol>
<symbol id="icon-pine" viewBox="0 0 32 32">
<path d="M22.25 3.75c0.080 0.85-0.003 1.683-0.25 2.5-0.294-1.182-1.044-1.682-2.25-1.5-0.182 1.206 0.318 1.956 1.5 2.25-0.363 0.699-0.613 1.449-0.75 2.25-0.369-0.537-0.869-0.87-1.5-1-0.998 1.081-2.081 2.081-3.25 3-1.169-0.919-2.252-1.919-3.25-3-1.14 0.638-2.14 1.471-3 2.5-0.381 1.704-1.131 3.204-2.25 4.5 0.105 0.293 0.271 0.543 0.5 0.75-0.75 0.75-1.5 1.5-2.25 2.25-0.329 0.804-0.079 1.387 0.75 1.75-1.694 1.266-2.861 2.849-3.5 4.75 2.5 0 5 0 7.5 0 0 1 0 2 0 3 1.333 0 2.667 0 4 0 0-1 0-2 0-3 1 0 2 0 3 0 0 1 0 2 0 3 1.333 0 2.667 0 4 0 0-1 0-2 0-3 2.5 0 5 0 7.5 0-0.639-1.901-1.806-3.484-3.5-4.75 0.464-0.194 0.797-0.527 1-1-0.638-1.14-1.471-2.14-2.5-3 0.229-0.207 0.395-0.457 0.5-0.75-1.11-1.097-1.777-2.43-2-4 0.564-0.381 1.147-0.714 1.75-1 0.557 0.915 1.307 1.331 2.25 1.25 0.573-1.042 0.24-1.792-1-2.25 0.541-0.124 1.208-0.208 2-0.25 0.667-0.5 0.667-1 0-1.5-0.792-0.042-1.459-0.126-2-0.25 0.594-0.51 1.094-1.093 1.5-1.75-1.113-0.918-2.030-0.668-2.75 0.75-0.247-0.817-0.33-1.65-0.25-2.5-0.5 0-1 0-1.5 0zM22.75 7.75c0.919 0.070 1.085 0.403 0.5 1-0.399-0.228-0.565-0.562-0.5-1zM11.75 10.75c0.628-0.019 1.128 0.231 1.5 0.75-0.667 0.333-1.333 0.333-2 0 0.278-0.191 0.445-0.441 0.5-0.75zM18.75 10.75c1.397 0.12 1.647 0.62 0.75 1.5-1.079-0.275-1.329-0.775-0.75-1.5zM10.75 13.75c1.212-0.154 2.379 0.013 3.5 0.5-1.227 1.185-2.56 1.269-4 0.25 0.278-0.191 0.445-0.441 0.5-0.75zM17.25 13.75c1.448-0.187 2.782 0.063 4 0.75-1.693 1.157-3.027 0.907-4-0.75zM9.75 16.75c1.841-0.083 3.674 0.001 5.5 0.25 0.333 0.333 0.667 0.667 1 1-1.382 0.275-2.715 0.692-4 1.25-1.386-0.263-2.719-0.68-4-1.25 0.535-0.426 1.035-0.843 1.5-1.25zM17.75 17.25c1.921-0.78 3.754-0.53 5.5 0.75-1.139 0.493-2.306 0.91-3.5 1.25-0.412-0.96-1.079-1.627-2-2zM8.25 20.25c2.418 0.617 4.835 0.617 7.25 0 1.224 0.722 2.308 1.639 3.25 2.75-4.333 0.333-8.667 0.333-13 0 0.937-0.852 1.77-1.769 2.5-2.75zM21.75 20.25c1.643 0.382 2.977 1.299 4 2.75-2.67 0.803-4.837 0.137-6.5-2 0.941-0.099 1.774-0.349 2.5-0.75zM11.75 24.75c0.982 0.224 1.149 0.724 0.5 1.5-0.443-0.413-0.61-0.913-0.5-1.5zM18.75 24.75c0.982 0.224 1.149 0.724 0.5 1.5-0.443-0.413-0.61-0.913-0.5-1.5z"></path>
</symbol>
<symbol id="icon-mug" viewBox="0 0 32 32">
<path d="M30 10h-6v-3c0-2.761-5.373-5-12-5s-12 2.239-12 5v20c0 2.761 5.373 5 12 5s12-2.239 12-5v-3h6c1.105 0 2-0.895 2-2v-10c0-1.105-0.895-2-2-2zM5.502 8.075c-1.156-0.381-1.857-0.789-2.232-1.075 0.375-0.286 1.075-0.694 2.232-1.075 1.811-0.597 4.118-0.925 6.498-0.925s4.688 0.329 6.498 0.925c1.156 0.381 1.857 0.789 2.232 1.075-0.375 0.286-1.076 0.694-2.232 1.075-1.811 0.597-4.118 0.925-6.498 0.925s-4.688-0.329-6.498-0.925zM28 20h-4v-6h4v6z"></path>
</symbol>
<symbol id="icon-cup" viewBox="0 0 32 32">
<path d="M24 12.998v-2c0-0.553-0.447-1-1-1h-22c-0.553 0-1 0.447-1 1v14.001c0 0.18 0.061 0.339 0.143 0.485 0.697 3.708 3.947 6.516 7.857 6.516h8c2.521 0 4.756-1.177 6.221-3h1.779c4.418 0 8-3.583 8-8.001 0-4.419-3.582-8.001-8-8.001zM24 24.999v-8.001c2.209 0 4 1.791 4 4.001 0 2.209-1.791 4-4 4zM5.198 8.504c-0.149 0.27-0.132 0.493 0.152 0.493 0.282 0 0.669-0.224 0.766-0.491 0.993-2.589-4.222-4.694-1.071-7.887 0.323-0.331 0.454-0.617 0.168-0.619-0.287-0.003-0.876 0.27-1.186 0.592-3.036 3.119 2.583 5.311 1.171 7.912zM8.975 8.516c-0.037 0.258 0.121 0.481 0.402 0.481 0.279 0 0.55-0.223 0.578-0.479 0.221-1.854-1.261-3.555-0.371-5.159 0.014-0.29-0.327-0.578-0.769-0.617s-0.834 0.179-0.849 0.467c-0.107 2.092 1.27 3.427 1.009 5.307zM13.402 8.997c0.279 0 0.5-0.223 0.553-0.47 0.507-2.396 4.648-3.134 1.526-7.413-0.334-0.442-0.927-0.848-1.214-0.852-0.288-0.005-0.313 0.39-0.122 0.827 3.107 2.932 0.124 5.036-1.197 7.438-0.044 0.247 0.176 0.47 0.454 0.47zM17.429 8.997c0.28 0 0.468-0.225 0.549-0.488 0.76-2.543 9.339-4.187 2.125-7.687-0.752-0.356-1.728-0.654-1.941-0.642-0.217 0.015 0.294 0.384 0.936 0.787 5.897 3.865 0.402 2.699-2.119 7.55-0.082 0.255 0.171 0.48 0.45 0.48z"></path>
</symbol>
<symbol id="icon-mug1" viewBox="0 0 32 32">
<path d="M31.822 12.267c-1.396-2.474-3.529-3.422-6.4-2.844 0-1.067 0-2.133 0-3.2 1.185-0.12 1.541-0.713 1.067-1.778-7.111-0.474-14.222-0.474-21.333 0-0.474 1.065-0.118 1.658 1.067 1.778-0.059 6.52 0 13.038 0.178 19.556 0.165 0.509 0.462 0.924 0.889 1.244 5.419 0.581 10.871 0.7 16.356 0.356 0.77-0.296 1.304-0.83 1.6-1.6 0.178-1.774 0.237-3.552 0.178-5.333 2.789-0.679 4.923-2.22 6.4-4.622 0-1.185 0-2.37 0-3.556zM25.422 11.556c3.249-0.137 4.375 1.285 3.378 4.267-1.067 0.711-2.133 1.422-3.2 2.133-0.178-2.13-0.237-4.263-0.178-6.4z"></path>
</symbol>
<symbol id="icon-grass" viewBox="0 0 32 32">
<path d="M18.4 31.84c-1.173 0-2.347 0-3.52 0 0.242-4.566-0.878-8.833-3.36-12.8-0.961-6.402-3.628-11.948-8-16.64-0.301-0.874 0.019-1.3 0.96-1.28 1.956 0.658 3.662 1.725 5.12 3.2 6.588 8.003 9.521 17.177 8.8 27.52z"></path>
<path d="M24.8 6.24c0.86-0.053 1.713 0.001 2.56 0.16 0.146 0.132 0.253 0.292 0.32 0.48-2.249 1.876-4.223 4.010-5.92 6.4-1.278 2.66-2.238 5.434-2.88 8.32-0.78-2.548-1.42-5.108-1.92-7.68 1.527-3.715 4.141-6.275 7.84-7.68z"></path>
<path d="M13.92 31.84c-1.92 0-3.84 0-5.76 0 0.141-7.208-2.259-13.394-7.2-18.56-0.301-0.874 0.019-1.3 0.96-1.28 5.52 2.535 9.254 6.695 11.2 12.48 0.683 2.457 0.95 4.911 0.8 7.36z"></path>
<path d="M31.84 12c0 0.533 0 1.067 0 1.6-4.41 5.228-6.544 11.308-6.4 18.24-1.92 0-3.84 0-5.76 0-0.164-8.473 3.249-15.033 10.24-19.68 0.631-0.159 1.271-0.212 1.92-0.16z"></path>
</symbol>
<symbol id="icon-massage1" viewBox="0 0 32 32">
<path d="M17.44 2.080c-1.853 2.124-3.399 4.471-4.64 7.040-0.75 3.032 0.264 5.219 3.040 6.56 5.121 0.746 7.414-1.441 6.88-6.56-0.939-1.897-2.006-3.71-3.2-5.44-0.569-0.733-1.262-1.266-2.080-1.6zM17.44 4.64c0.486 0.003 0.859 0.217 1.12 0.64 1.346 1.662 2.252 3.529 2.72 5.6-0.677 3.059-2.491 4.019-5.44 2.88-1.816-1.617-2.082-3.483-0.8-5.6 0.803-1.183 1.603-2.356 2.4-3.52z"></path>
<path d="M15.2 10.080c0.954-0.083 1.54 0.344 1.76 1.28 1.026 0.241 1.506 0.881 1.44 1.92-2.453 0.32-3.52-0.747-3.2-3.2z"></path>
<path d="M26.72 16.48c3.145-0.535 4.372 0.745 3.68 3.84-3.803 3.056-7.696 5.99-11.68 8.8-1.067 0.213-2.133 0.213-3.2 0-2.868-1.142-5.801-2.048-8.8-2.72-0.48 0.053-0.96 0.107-1.44 0.16-1.080 0.86-2.253 1.553-3.52 2.080-1.037-0.125-1.197-0.552-0.48-1.28 2.018-2.273 4.525-3.073 7.52-2.4 2.347 0.853 4.693 1.707 7.040 2.56 0.747 0.213 1.493 0.213 2.24 0 3.2-2.347 6.4-4.693 9.6-7.040 1.398-0.761 1.558-1.667 0.48-2.72-2.401 1.413-4.747 2.907-7.040 4.48 0.064 2.813-1.269 3.827-4 3.040-1.813-0.533-3.627-1.067-5.44-1.6-0.282-0.434-0.388-0.914-0.32-1.44 2.676 0.482 5.342 1.016 8 1.6 0.084-0.473-0.023-0.9-0.32-1.28-3.372-1.674-6.839-3.061-10.4-4.16-2.341 0.692-4.635 1.545-6.88 2.56-0.43-0.271-0.75-0.644-0.96-1.12 2.384-1.593 4.997-2.5 7.84-2.72 1.149-0.009 2.269 0.151 3.36 0.48 2.597 1.032 5.157 2.152 7.68 3.36 2.445-1.386 4.792-2.88 7.040-4.48z"></path>
</symbol>


<symbol id="icon-clock" viewBox="0 0 32 32">
<path d="M16 0c-8.837 0-16 7.163-16 16s7.163 16 16 16 16-7.163 16-16-7.163-16-16-16zM20.586 23.414l-6.586-6.586v-8.828h4v7.172l5.414 5.414-2.829 2.829z"></path>
</symbol>
<symbol id="icon-group" viewBox="0 0 30 28">
<path d="M9.266 14c-1.625 0.047-3.094 0.75-4.141 2h-2.094c-1.563 0-3.031-0.75-3.031-2.484 0-1.266-0.047-5.516 1.937-5.516 0.328 0 1.953 1.328 4.062 1.328 0.719 0 1.406-0.125 2.078-0.359-0.047 0.344-0.078 0.688-0.078 1.031 0 1.422 0.453 2.828 1.266 4zM26 23.953c0 2.531-1.672 4.047-4.172 4.047h-13.656c-2.5 0-4.172-1.516-4.172-4.047 0-3.531 0.828-8.953 5.406-8.953 0.531 0 2.469 2.172 5.594 2.172s5.063-2.172 5.594-2.172c4.578 0 5.406 5.422 5.406 8.953zM10 4c0 2.203-1.797 4-4 4s-4-1.797-4-4 1.797-4 4-4 4 1.797 4 4zM21 10c0 3.313-2.688 6-6 6s-6-2.688-6-6 2.688-6 6-6 6 2.688 6 6zM30 13.516c0 1.734-1.469 2.484-3.031 2.484h-2.094c-1.047-1.25-2.516-1.953-4.141-2 0.812-1.172 1.266-2.578 1.266-4 0-0.344-0.031-0.688-0.078-1.031 0.672 0.234 1.359 0.359 2.078 0.359 2.109 0 3.734-1.328 4.062-1.328 1.984 0 1.937 4.25 1.937 5.516zM28 4c0 2.203-1.797 4-4 4s-4-1.797-4-4 1.797-4 4-4 4 1.797 4 4z"></path>
</symbol>
<symbol id="icon-wallet" viewBox="0 0 32 32">
<path d="M18 22c-1.104 0-2-0.896-2-2v-2c0-1.105 0.896-2 2-2h12v6h-12zM19.5 17.583c-0.828 0-1.5 0.672-1.5 1.5 0 0.829 0.672 1.5 1.5 1.5 0.829 0 1.5-0.671 1.5-1.5 0-0.828-0.671-1.5-1.5-1.5zM15 18v2c0 1.656 1.344 3 3 3h10v4c0 1.656-1.343 3-3 3h-21c-1.656 0-3-1.344-3-3v-19c0-1.657 1.344-3 3-3h9.632l-2.349 0.979h-7.782c-0.828 0-1.5 0.672-1.5 1.5s0.672 1.5 1.5 1.5h24.499v6.021h-10c-1.656 0-3 1.343-3 3zM5.001 11h-2v2h1v-1h1v-1zM5.001 14h-2v2h1.041l-0.041-1 1 0.021v-1.021zM5.001 17h-2v2h1.021l-0.021-1h1v-1zM5.001 20h-2v2h1.021l-0.021-1 1 0.021v-1.021zM5.001 23h-2v2h1v-1h1v-1zM5.001 26h-2v2h1.021l-0.021-0.979h1v-1.021zM9.001 7.938l11.75-4.938 2.25 4.938h-14zM22.646 5h2.354c0.876 0 1.656 0.381 2.205 0.979h-4.081l-0.478-0.979z"></path>
</symbol>
<symbol id="icon-arrow" viewBox="0 0 24 24">
<path d="M8.578 16.594l4.594-4.594-4.594-4.594 1.406-1.406 6 6-6 6z"></path>
</symbol>
<symbol id="icon-check-proc" viewBox="0 0 32 32">
<path d="M14.72 2.080c-0.672 0.736-0.768 0.736-1.632 0.32-1.344-0.704-1.856-0.576-2.56 0.608-0.576 0.992-0.736 1.088-1.856 0.928-1.344-0.192-1.6 0.032-1.92 1.632-0.16 0.768-0.416 1.024-1.184 1.184-1.6 0.32-1.824 0.576-1.632 1.92 0.16 1.12 0.064 1.28-0.928 1.856-1.184 0.704-1.312 1.216-0.608 2.56 0.416 0.864 0.416 0.96-0.32 1.632-0.992 0.96-0.992 1.6 0 2.56 0.736 0.672 0.736 0.768 0.32 1.632-0.704 1.344-0.576 1.856 0.608 2.56 0.992 0.576 1.088 0.736 0.928 1.856-0.192 1.344 0.032 1.6 1.632 1.92 0.768 0.16 1.024 0.416 1.184 1.28 0.288 1.344 0.8 1.696 2.112 1.504 0.896-0.128 1.088 0 1.664 0.96 0.704 1.184 1.216 1.312 2.56 0.608 0.864-0.416 0.96-0.416 1.632 0.32 0.96 0.992 1.6 0.992 2.56 0 0.672-0.736 0.768-0.736 1.632-0.32 1.344 0.704 1.856 0.576 2.56-0.608 0.576-0.96 0.768-1.088 1.664-0.96 1.312 0.192 1.824-0.16 2.112-1.504 0.192-0.896 0.384-1.088 1.28-1.28 1.344-0.288 1.696-0.8 1.504-2.112-0.128-0.896 0-1.088 0.96-1.664 1.184-0.704 1.312-1.216 0.608-2.56-0.416-0.864-0.416-0.96 0.32-1.632 0.448-0.416 0.8-0.992 0.8-1.28s-0.352-0.864-0.8-1.28c-0.736-0.672-0.736-0.768-0.32-1.632 0.704-1.344 0.576-1.856-0.608-2.56-0.96-0.576-1.088-0.768-0.96-1.664 0.192-1.312-0.16-1.824-1.504-2.112-0.864-0.16-1.12-0.416-1.28-1.184-0.32-1.6-0.576-1.824-1.92-1.632-1.12 0.16-1.28 0.064-1.856-0.928-0.704-1.184-1.216-1.312-2.56-0.608-0.864 0.416-0.96 0.416-1.632-0.32-0.416-0.448-0.992-0.8-1.28-0.8s-0.864 0.352-1.28 0.8zM16.64 3.168c0.48 0.896 1.44 1.088 2.528 0.544 0.928-0.48 0.928-0.48 1.632 0.64 0.64 1.12 0.736 1.152 1.92 0.96 1.216-0.192 1.28-0.16 1.28 0.608 0 1.024 1.056 2.080 2.080 2.080 0.768 0 0.8 0.064 0.608 1.28-0.192 1.184-0.16 1.28 0.96 1.92 1.12 0.672 1.12 0.704 0.672 1.6-0.64 1.248-0.608 1.504 0.352 2.4l0.864 0.8-0.864 0.8c-0.96 0.896-0.992 1.152-0.352 2.4 0.448 0.896 0.448 0.928-0.672 1.6-1.12 0.64-1.152 0.736-0.96 1.92 0.192 1.216 0.16 1.28-0.608 1.28-1.024 0-2.080 1.056-2.080 2.080 0 0.768-0.064 0.8-1.28 0.608-1.184-0.192-1.28-0.16-1.92 0.96-0.672 1.12-0.704 1.12-1.6 0.672-1.248-0.64-1.504-0.608-2.4 0.352l-0.8 0.864-0.8-0.864c-0.896-0.96-1.152-0.992-2.4-0.352-0.896 0.448-0.928 0.448-1.6-0.672-0.64-1.12-0.736-1.152-1.92-0.96-1.216 0.192-1.28 0.16-1.28-0.608 0-1.024-1.056-2.080-2.080-2.080-0.768 0-0.8-0.064-0.608-1.28 0.192-1.184 0.16-1.28-0.96-1.92-1.12-0.672-1.12-0.704-0.672-1.6 0.64-1.248 0.608-1.44-0.384-2.368l-0.864-0.8 0.864-0.8c0.992-0.928 1.024-1.184 0.384-2.432-0.448-0.896-0.448-0.928 0.672-1.6 1.12-0.64 1.152-0.736 0.96-1.92-0.192-1.216-0.16-1.28 0.608-1.28 1.024 0 2.080-1.056 2.080-2.080 0-0.768 0.064-0.8 1.28-0.608 1.184 0.192 1.28 0.16 1.92-0.96 0.704-1.12 0.704-1.12 1.632-0.64 1.088 0.544 2.048 0.352 2.528-0.544 0.192-0.32 0.48-0.608 0.64-0.608s0.448 0.288 0.64 0.608z"></path>
<path d="M22.432 11.2c-2.24 1.024-5.344 3.424-6.464 4.96l-1.056 1.44-0.8-0.768c-1.248-1.152-3.424-2.112-5.248-2.336l-1.664-0.192 2.048 1.536c1.12 0.864 2.816 2.592 3.776 3.904s1.92 2.304 2.112 2.24c0.224-0.064 0.96-1.12 1.664-2.368 1.792-3.136 3.392-5.184 5.632-7.264 1.056-0.992 1.824-1.792 1.664-1.792-0.128 0-0.896 0.288-1.664 0.64z"></path>
</symbol>
<symbol id="icon-circle-up" viewBox="0 0 32 32">
<path d="M0 16c0 8.837 7.163 16 16 16s16-7.163 16-16-7.163-16-16-16-16 7.163-16 16zM29 16c0 7.18-5.82 13-13 13s-13-5.82-13-13 5.82-13 13-13 13 5.82 13 13z"></path>
<path d="M22.086 20.914l2.829-2.829-8.914-8.914-8.914 8.914 2.828 2.828 6.086-6.086z"></path>
</symbol>
<symbol id="icon-food-menu" viewBox="0 0 32 32">
<path d="M4.5 13.2v8.8h1.9c2.2 0 6.85 1.25 8.45 2.3 1 0.65 1.3 0.65 2.25 0 1.65-1.050 6.3-2.3 8.5-2.3h1.9v-17.65l-3.3 0.35c-1.8 0.2-4.25 0.7-5.35 1.1-2.6 1-3.1 1-5.7 0-1.1-0.4-3.55-0.9-5.35-1.1l-3.3-0.35v8.85zM8 9.75l0.4-1.5 0.2 3 0.4-1.5 0.35-1.5 0.4 2c0.25 1.35 0.2 2-0.2 2.15-0.35 0.1-0.55 1.4-0.55 3.4 0 1.8-0.2 3.2-0.5 3.2s-0.5-1.4-0.5-3.2c0-1.8-0.2-3.4-0.5-3.55-0.25-0.15-0.45-1.25-0.4-2.4 0.050-2.1 0.050-2.1 0.3-0.35l0.25 1.75 0.35-1.5zM24.5 9.15c0 0.4-0.95 0.9-2.1 1.2-1.2 0.3-2.55 0.7-3.1 0.9-0.7 0.3-0.85 0.2-0.7-0.55 0.25-1.45 5.9-2.95 5.9-1.55zM13.5 14.5c0 3.35-0.2 5.5-0.5 5.5-0.25 0-0.5-1.1-0.5-2.45 0-1.4-0.25-2.65-0.55-2.8-0.7-0.45 0.5-5.75 1.3-5.75 0.15 0 0.25 2.45 0.25 5.5zM23.5 13.25c0 0.4-0.75 0.9-1.6 1.15-0.9 0.3-2.050 0.65-2.6 0.85-0.7 0.3-0.85 0.2-0.7-0.55 0.1-0.55 0.9-1.15 2.15-1.5 2.65-0.8 2.75-0.8 2.75 0.050zM24.5 17.15c0 0.4-0.95 0.9-2.1 1.2-1.2 0.3-2.55 0.7-3.1 0.9-0.7 0.3-0.85 0.2-0.7-0.55 0.25-1.45 5.9-2.95 5.9-1.55z"></path>
<path d="M2.4 8.050c-0.8 0.45-0.9 1.45-0.9 9.7v9.25l1.3-0.5c1.85-0.75 8.2-0.6 10.85 0.2 2 0.6 2.7 0.6 4.7 0 2.65-0.8 9-0.95 10.85-0.2l1.3 0.5v-9.25c0-8.7-0.050-9.25-1-9.75-1-0.55-1-0.4-1 7.65v8.2l-2.65-0.25c-1.9-0.15-3.6 0.15-6.25 1l-3.6 1.2-3.6-1.2c-2.65-0.85-4.35-1.15-6.25-1l-2.65 0.25-0.1-8.15c-0.15-7.6-0.2-8.1-1-7.65z"></path>
</symbol>
<symbol id="icon-well-done" viewBox="0 0 32 32">
<path d="M15.8 5.3c-2.233 1.367-2.7 4.433-1.3 8.8 0.9 2.8 1 4.1 0.5 5.867-0.167 0.633-0.267 1.2-0.233 1.267 0.067 0.033 0.6-0.2 1.233-0.533 2.433-1.3 3-4.633 1.5-9.033-0.867-2.567-1.067-4.7-0.5-6.133 0.367-1.033 0.167-1.067-1.2-0.233z"></path>
<path d="M10.133 6.967c-1.033 0.633-1.8 2.133-1.8 3.533 0 0.4 0.3 1.6 0.7 2.7 0.533 1.5 0.633 2.5 0.533 4.2l-0.133 2.267 0.933-0.567c1.067-0.633 1.967-2.267 1.967-3.533 0-0.467-0.3-1.767-0.633-2.933-0.967-3.233-1.033-3.7-0.733-5.067 0.167-0.667 0.267-1.233 0.233-1.233 0 0-0.5 0.3-1.067 0.633z"></path>
<path d="M21.733 6.767c-1.933 1.067-2.367 3.167-1.4 6.367 0.733 2.3 0.9 4.567 0.5 5.867-0.233 0.7-0.2 0.7 0.767 0.2 1.1-0.567 2.067-2.333 2.067-3.8 0-0.533-0.233-1.633-0.5-2.433-0.9-2.5-1.133-4.1-0.867-5.4 0.167-0.667 0.267-1.233 0.233-1.233 0 0.033-0.367 0.2-0.8 0.433z"></path>
<path d="M4.667 18.033c-1.333 2.7-0.233 5.267 3 7.233 2.667 1.567 4.067 1.9 8.333 1.9s5.667-0.333 8.333-1.9c3.233-1.967 4.333-4.533 3-7.233l-0.767-1.533-0.3 1.167c-0.5 1.867-1.767 3.2-4.167 4.4-2.167 1.067-2.433 1.1-6.1 1.1s-3.933-0.033-6.1-1.1c-2.4-1.2-3.667-2.533-4.167-4.4l-0.3-1.167-0.767 1.533z"></path>
</symbol>
<symbol id="icon-chat" viewBox="0 0 20 20">
<path d="M5.8 12.2v-6.2h-3.8c-1.1 0-2 0.9-2 2v6c0 1.1 0.9 2 2 2h1v3l3-3h5c1.1 0 2-0.9 2-2v-1.82c-0.064 0.014-0.132 0.021-0.2 0.021l-7-0.001zM18 1h-9c-1.1 0-2 0.9-2 2v8h7l3 3v-3h1c1.1 0 2-0.899 2-2v-6c0-1.1-0.9-2-2-2z"></path>
</symbol>
<symbol id="icon-whatsapp" viewBox="0 0 32 32">
<path fill="#fff" style="fill: var(--color1, #fff)" d="M3.245 28.869l1.796-6.557c-1.108-1.919-1.691-4.096-1.69-6.326 0.003-6.977 5.681-12.653 12.658-12.653 3.386 0.001 6.563 1.319 8.953 3.711s3.705 5.571 3.704 8.952c-0.003 6.977-5.681 12.653-12.657 12.653-0.001 0 0 0 0 0h-0.005c-2.118-0.001-4.2-0.532-6.049-1.541l-6.71 1.76z"></path>
<path fill="#fff" style="fill: var(--color1, #fff)" d="M3.245 29.202c-0.088 0-0.173-0.035-0.237-0.099-0.083-0.085-0.116-0.208-0.085-0.322l1.759-6.424c-1.091-1.937-1.666-4.137-1.665-6.371 0.003-7.161 5.83-12.987 12.991-12.987 3.473 0.001 6.737 1.354 9.189 3.809s3.803 5.718 3.801 9.187c-0.003 7.161-5.831 12.987-12.991 12.987-2.126-0.001-4.229-0.525-6.096-1.518l-6.583 1.726c-0.028 0.008-0.056 0.011-0.085 0.011z"></path>
<path fill="#cfd8dc" style="fill: var(--color2, #cfd8dc)" d="M16.009 3.333c3.386 0.001 6.563 1.319 8.953 3.711s3.705 5.571 3.704 8.952c-0.003 6.977-5.681 12.653-12.657 12.653h-0.005c-2.118-0.001-4.2-0.532-6.049-1.541l-6.71 1.76 1.796-6.557c-1.108-1.919-1.691-4.096-1.69-6.326 0.003-6.977 5.681-12.653 12.658-12.653zM16.009 28.649c0 0 0 0 0 0s0 0 0 0zM16.009 28.649c0 0 0 0 0 0s0 0 0 0zM16.009 2.667c0 0 0 0 0 0-7.344 0-13.321 5.975-13.325 13.319-0.001 2.245 0.566 4.457 1.641 6.415l-1.723 6.293c-0.063 0.23 0.001 0.475 0.169 0.645 0.127 0.128 0.298 0.198 0.474 0.198 0.057 0 0.113-0.007 0.169-0.022l6.458-1.693c1.885 0.979 3.999 1.495 6.131 1.496 7.349 0 13.327-5.975 13.33-13.32 0.001-3.559-1.383-6.906-3.899-9.423-2.517-2.518-5.864-3.905-9.426-3.907v0z"></path>
<path fill="#40c351" style="fill: var(--color3, #40c351)" d="M23.451 8.555c-1.987-1.988-4.627-3.083-7.438-3.084-5.803 0-10.522 4.717-10.525 10.516-0.001 1.987 0.555 3.922 1.609 5.597l0.251 0.398-1.063 3.881 3.982-1.044 0.385 0.228c1.615 0.959 3.467 1.465 5.355 1.466h0.004c5.799 0 10.518-4.718 10.52-10.517 0.001-2.81-1.092-5.453-3.079-7.441z"></path>
<path fill="#fff" style="fill: var(--color1, #fff)" d="M12.845 10.697c-0.237-0.527-0.486-0.537-0.712-0.547-0.185-0.008-0.395-0.007-0.606-0.007s-0.553 0.079-0.843 0.396c-0.29 0.317-1.107 1.081-1.107 2.637s1.133 3.060 1.291 3.271c0.158 0.211 2.188 3.506 5.403 4.774 2.671 1.053 3.215 0.844 3.795 0.791s1.871-0.765 2.135-1.503c0.263-0.739 0.263-1.371 0.185-1.503s-0.29-0.211-0.606-0.369-1.871-0.923-2.161-1.029c-0.29-0.105-0.501-0.158-0.712 0.159s-0.817 1.029-1.001 1.239c-0.185 0.211-0.369 0.238-0.685 0.079s-1.335-0.492-2.543-1.569c-0.94-0.838-1.575-1.873-1.759-2.19s-0.020-0.487 0.139-0.645c0.142-0.142 0.316-0.369 0.475-0.554s0.211-0.317 0.316-0.527c0.105-0.211 0.053-0.396-0.027-0.554-0.078-0.159-0.693-1.723-0.974-2.348z"></path>
</symbol>
<symbol id="icon-viber" viewBox="0 0 32 32">
<path fill="#fff" style="fill: var(--color1, #fff)" d="M16 3.333c-1.759 0-7.113 0-10.073 2.703-1.763 1.756-2.593 4.293-2.593 7.964v2c0 3.671 0.831 6.208 2.614 7.984 0.888 0.81 2.099 1.457 3.579 1.905l0.474 0.143v3.552c0 0.417 0.121 0.417 0.161 0.417 0.082 0 0.213-0.026 0.463-0.247 0.060-0.059 0.5-0.535 2.64-2.933l0.216-0.242 0.323 0.021c0.717 0.045 1.456 0.068 2.197 0.068 1.759 0 7.113 0 10.073-2.703 1.762-1.756 2.593-4.293 2.593-7.963v-2c0-3.671-0.831-6.208-2.614-7.984-2.939-2.683-8.293-2.683-10.053-2.683z"></path>
<path fill="#7e57c2" style="fill: var(--color4, #7e57c2)" d="M22.301 19.236c-0.741-0.624-1.083-0.813-2.105-1.427-0.426-0.255-1.075-0.476-1.416-0.476-0.233 0-0.511 0.178-0.682 0.349-0.437 0.437-0.581 0.985-1.347 0.985-0.75 0-2.060-0.763-3-1.75-0.987-0.94-1.75-2.25-1.75-3 0-0.767 0.537-0.92 0.975-1.358 0.171-0.17 0.359-0.449 0.359-0.681 0-0.341-0.221-0.98-0.476-1.406-0.614-1.023-0.802-1.365-1.427-2.105-0.211-0.251-0.452-0.365-0.704-0.366-0.426-0.001-0.985 0.211-1.364 0.493-0.569 0.425-1.165 1.003-1.324 1.723-0.021 0.098-0.034 0.197-0.038 0.295-0.031 0.75 0.264 1.511 0.582 2.156 0.749 1.519 1.739 2.99 2.817 4.303 0.345 0.42 0.72 0.811 1.109 1.188 0.377 0.388 0.768 0.763 1.188 1.109 1.313 1.078 2.784 2.069 4.303 2.817 0.639 0.315 1.391 0.604 2.133 0.583 0.106-0.003 0.212-0.015 0.318-0.039 0.72-0.159 1.298-0.755 1.723-1.324 0.282-0.379 0.493-0.937 0.493-1.364-0.001-0.252-0.115-0.493-0.366-0.704zM22.667 16c-0.368 0-0.667-0.299-0.667-0.667v-0.667c0-3.308-2.692-6-6-6-0.368 0-0.667-0.299-0.667-0.667s0.299-0.667 0.667-0.667c4.043 0 7.333 3.29 7.333 7.333v0.667c0 0.368-0.299 0.667-0.667 0.667zM18.572 14.667c-0.296 0-0.567-0.199-0.645-0.499-0.183-0.701-0.729-1.248-1.427-1.428-0.357-0.093-0.571-0.456-0.479-0.813s0.455-0.57 0.813-0.479c1.165 0.302 2.079 1.215 2.383 2.383 0.093 0.357-0.121 0.72-0.477 0.813-0.057 0.015-0.113 0.022-0.169 0.022z"></path>
<path fill="#7e57c2" style="fill: var(--color4, #7e57c2)" d="M20.667 15.333c-0.368 0-0.667-0.299-0.667-0.667 0-2.125-1.663-3.879-3.785-3.991-0.368-0.019-0.65-0.333-0.631-0.701s0.339-0.651 0.701-0.631c2.831 0.149 5.049 2.487 5.049 5.322 0 0.368-0.299 0.667-0.667 0.667z"></path>
<path fill="#7e57c2" style="fill: var(--color4, #7e57c2)" d="M16 2.667c-3 0-7.675 0.276-10.523 2.877-2.013 2.005-2.811 4.817-2.811 8.456 0 0.301-0.001 0.637 0.001 1-0.003 0.362-0.001 0.698-0.001 0.999 0 3.639 0.797 6.451 2.811 8.456 1.084 0.99 2.436 1.641 3.856 2.071v3.057c0 1.064 0.699 1.083 0.827 1.083h0.006c0.329-0.001 0.614-0.163 0.899-0.416 0.107-0.095 1.347-1.477 2.695-2.987 0.803 0.051 1.565 0.070 2.239 0.070 0 0 0 0 0 0s0 0 0 0c3 0 7.674-0.277 10.523-2.878 2.013-2.004 2.811-4.817 2.811-8.456 0-0.301 0.001-0.637-0.001-1 0.003-0.363 0.001-0.698 0.001-1 0-3.639-0.797-6.451-2.811-8.456-2.848-2.601-7.522-2.877-10.522-2.877zM27.333 15.767v0.232c0 3.271-0.697 5.499-2.191 7.008-2.588 2.326-7.518 2.326-9.143 2.326-0.495 0-1.297-0.001-2.245-0.067-0.263 0.296-3.088 3.455-3.088 3.455v-3.909c-1.403-0.337-2.789-0.889-3.809-1.805-1.494-1.509-2.191-3.738-2.191-7.009v-0.232c0-0.234-0.001-0.487 0.001-0.782-0.002-0.267-0.002-0.519-0.001-0.753v-0.232c0-3.271 0.697-5.499 2.191-7.008 2.587-2.326 7.518-2.326 9.143-2.326s6.555 0 9.142 2.326c1.495 1.509 2.191 3.737 2.191 7.008v0.232c0 0.234 0.001 0.487-0.001 0.782 0.002 0.267 0.002 0.519 0.002 0.753z"></path>
</symbol>
<symbol id="icon-telegram" viewBox="0 0 32 32">
<path fill="#29b6f6" style="fill: var(--color5, #29b6f6)" d="M16 2.667c-7.364 0-13.333 5.97-13.333 13.333s5.97 13.333 13.333 13.333v0c7.364 0 13.333-5.97 13.333-13.333s-5.97-13.333-13.333-13.333v0z"></path>
<path fill="#fff" style="fill: var(--color1, #fff)" d="M22.633 10l-2.497 12.751c0 0-0.107 0.583-0.83 0.583-0.384 0-0.582-0.183-0.582-0.183l-5.409-4.489-2.647-1.334-3.397-0.903c0 0-0.605-0.175-0.605-0.675 0-0.417 0.622-0.615 0.622-0.615l14.211-5.645c-0.001-0.001 0.434-0.157 0.751-0.156 0.195 0 0.417 0.083 0.417 0.333 0 0.167-0.033 0.333-0.033 0.333z"></path>
<path fill="#b0bec5" style="fill: var(--color6, #b0bec5)" d="M15.333 20.337l-2.284 2.249c0 0-0.099 0.077-0.232 0.080-0.046 0.001-0.095-0.006-0.146-0.029l0.643-3.977 2.019 1.676z"></path>
<path fill="#cfd8dc" style="fill: var(--color2, #cfd8dc)" d="M19.931 12.131c-0.113-0.147-0.321-0.173-0.467-0.062l-8.797 5.265c0 0 1.404 3.928 1.618 4.608s0.387 0.697 0.387 0.697l0.643-3.977 6.555-6.064c0.147-0.111 0.174-0.32 0.063-0.467z"></path>
</symbol>
<symbol id="icon-chevron-up" viewBox="0 0 24 24">
<path d="M18.707 14.293l-6-6c-0.391-0.391-1.024-0.391-1.414 0l-6 6c-0.391 0.391-0.391 1.024 0 1.414s1.024 0.391 1.414 0l5.293-5.293 5.293 5.293c0.391 0.391 1.024 0.391 1.414 0s0.391-1.024 0-1.414z"></path>
</symbol>
<symbol id="icon-plate" viewBox="0 0 32 32">
<path d="M10.112 9.92c-6.144 0.768-10.112 2.688-10.112 4.864 0 1.088 4.768 5.12 7.2 6.080 4.896 1.952 12.704 1.952 17.6 0 2.432-0.96 7.2-4.992 7.2-6.080 0-1.76-2.784-3.456-7.232-4.384-2.944-0.608-11.392-0.896-14.656-0.48zM24.48 11.68c2.816 0.576 5.76 1.824 6.048 2.56 0.32 0.832-0.16 1.408-1.824 2.208-2.912 1.408-6.464 1.952-12.704 1.952s-9.792-0.544-12.704-1.952c-2.432-1.152-2.56-2.080-0.48-3.264 1.408-0.768 4.224-1.536 7.296-1.952 3.168-0.448 11.328-0.192 14.368 0.448zM10.56 19.52c4.192 0.512 10.208 0.32 14.24-0.512 1.728-0.352 0.448 0.416-1.92 1.152-4.16 1.248-10.368 1.184-14.464-0.192-1.824-0.608-2.656-1.248-1.216-0.96 0.544 0.096 2.048 0.352 3.36 0.512z"></path>
<path d="M10.24 12.352c-4.96 0.608-7.040 1.28-7.040 2.368 0 1.632 4.128 2.4 12.8 2.4s12.8-0.768 12.8-2.4c0-0.8-1.248-1.44-3.68-1.92-1.92-0.384-12.768-0.704-14.88-0.448zM25.088 14.080c2.464 0.512 2.464 0.768 0 1.28-5.024 1.024-19.968 0.544-19.968-0.64 0-1.12 15.392-1.6 19.968-0.64z"></path>
</symbol>
<symbol id="icon-bowl" viewBox="0 0 32 32">
<path d="M0.224 9.184c-0.32 0.32-0.256 2.624 0.128 4.768 0.736 4.064 2.976 7.168 7.168 10.016l2.432 1.632h12.096l2.432-1.632c2.88-1.952 4.96-4.192 6.048-6.496 0.896-1.888 1.568-5.248 1.408-7.104l-0.096-1.248-15.712-0.096c-8.64-0.032-15.808 0.032-15.904 0.16z"></path>
</symbol>
<symbol id="icon-fire" viewBox="0 0 32 32">
<path d="M13.44 0.832c-0.192 0.448-0.32 1.056-0.32 1.344 0 1.312-2.176 4.928-5.184 8.672-1.792 2.208-3.68 4.96-4.224 6.112-0.864 1.824-0.992 2.432-0.992 4.8 0 2.336 0.128 2.976 0.896 4.544 0.512 1.024 1.536 2.4 2.368 3.104 2.304 2.048 6.656 3.328 6.656 1.984 0-0.288-0.608-0.608-1.6-0.832-2.112-0.48-3.264-1.12-4.672-2.624-1.92-2.016-2.368-3.136-2.368-6.016 0.032-3.456 0.8-5.088 4.736-10.016 3.040-3.776 5.344-7.488 5.344-8.64 0-0.288 0.128-0.736 0.288-0.992 0.64-0.992 8.224 5.952 10.688 9.76 2.368 3.744 2.912 5.312 2.944 8.608 0 2.528-0.128 3.136-0.928 4.864-0.864 1.888-2.72 3.968-4.672 5.28-0.64 0.416-0.704 0.608-0.416 0.928 0.992 1.024 4.64-2.24 6.208-5.6 2.784-5.92 0.704-12.736-5.888-19.456-2.176-2.24-7.68-6.656-8.288-6.656-0.16 0-0.416 0.384-0.576 0.832z"></path>
<path d="M16.096 13.696c0.064 3.136-0.032 3.904-0.512 4.64-0.768 1.184-1.248 1.088-2.784-0.512l-1.312-1.344-0.8 0.96c-1.056 1.312-1.856 3.968-1.6 5.312 0.416 2.24 2.624 4.704 3.488 3.84 0.256-0.256 0.064-0.64-0.832-1.568-1.376-1.408-1.728-2.72-1.184-4.448 0.672-2.016 0.896-2.144 2.144-1.056 1.632 1.472 3.136 1.184 4.16-0.736 0.384-0.704 0.544-1.824 0.544-3.68l0.032-2.688 1.184 1.344c2.944 3.296 3.488 6.912 1.6 10.56-0.672 1.344-0.928 2.144-0.704 2.368 0.48 0.48 1.44-0.576 2.272-2.464 0.544-1.248 0.736-2.272 0.736-4.064 0.032-2.112-0.128-2.72-0.992-4.512-1.024-2.048-4.256-5.728-5.056-5.728-0.32 0-0.416 0.864-0.384 3.776z"></path>
</symbol>


</defs>
</svg>
